<svg width="254" height="209" viewBox="0 0 254 209" fill="none" xmlns="http://www.w3.org/2000/svg">
<path d="M253.889 18.666L253.806 71.0058C253.806 73.9291 252.269 76.6397 249.756 78.1403C247.243 79.6409 244.127 79.7084 241.552 78.3168L228.965 71.5458L220.657 67.0595V23.2762L241.427 11.4375C244.008 9.97317 247.165 9.98885 249.73 11.479C252.295 12.9641 253.879 15.7012 253.889 18.666Z" fill="white"/>
<path fill-rule="evenodd" clip-rule="evenodd" d="M9.50062 9.136C15.0771 3.55956 22.6403 0.426758 30.5266 0.426758H60.2618C68.1481 0.426758 75.7113 3.55956 81.2878 9.136C86.8642 14.7124 89.997 22.2757 89.997 30.162V59.8972C89.997 67.7834 86.8642 75.3467 81.2878 80.9231C75.7113 86.4996 68.1481 89.6324 60.2618 89.6324H30.5266C22.6403 89.6324 15.0771 86.4996 9.50062 80.9231C3.92419 75.3467 0.791382 67.7834 0.791382 59.8972V30.162C0.791382 22.2757 3.92419 14.7124 9.50062 9.136ZM9.50062 128.077C15.0771 122.5 22.6403 119.368 30.5266 119.368H60.2618C68.1481 119.368 75.7113 122.5 81.2878 128.077C86.8642 133.653 89.997 141.217 89.997 149.103V178.838C89.997 186.724 86.8642 194.288 81.2878 199.864C75.7113 205.44 68.1481 208.573 60.2618 208.573H30.5266C22.6403 208.573 15.0771 205.44 9.50062 199.864C3.92419 194.288 0.791382 186.724 0.791382 178.838V149.103C0.791382 141.217 3.92419 133.653 9.50062 128.077ZM128.441 9.136C122.865 14.7124 119.732 22.2757 119.732 30.162V59.8972C119.732 67.7834 122.865 75.3467 128.441 80.9231C134.018 86.4996 141.581 89.6324 149.467 89.6324H179.203C187.089 89.6324 194.652 86.4996 200.229 80.9231C205.805 75.3467 208.938 67.7834 208.938 59.8972V30.162C208.938 22.2757 205.805 14.7124 200.229 9.136C194.652 3.55956 187.089 0.426758 179.203 0.426758H149.467C141.581 0.426758 134.018 3.55956 128.441 9.136ZM143.15 14.5553C139.695 14.5553 136.895 17.3559 136.895 20.8106C136.895 24.2653 139.695 27.0659 143.15 27.0659H184.352C187.807 27.0659 190.607 24.2653 190.607 20.8106C190.607 17.3559 187.807 14.5553 184.352 14.5553H143.15Z" fill="white"/>
<path d="M168.381 120.656V203.937C168.381 206.466 166.284 208.564 163.754 208.564C161.225 208.564 159.128 206.466 159.128 203.937V120.656H168.381Z" fill="white"/>
<path d="M147.528 120.665L125.011 205.118C124.518 207.215 122.605 208.573 120.569 208.573C120.199 208.573 119.767 208.511 119.397 208.387C116.93 207.77 115.45 205.241 116.128 202.774L138.027 120.604C138.397 120.666 138.706 120.666 139.076 120.666L147.528 120.665Z" fill="white"/>
<path d="M208.108 208.388C207.738 208.511 207.306 208.573 206.936 208.573C204.9 208.573 202.988 207.216 202.494 205.119L179.977 120.666H188.429C188.798 120.666 189.107 120.666 189.477 120.604L211.377 202.774C212.055 205.241 210.575 207.772 208.108 208.388Z" fill="white"/>
</svg>
