<svg width="289" height="133" viewBox="0 0 289 133" fill="none" xmlns="http://www.w3.org/2000/svg">
<path d="M45.8253 70.6536C43.6219 70.6536 41.5086 71.5289 39.9506 73.087C38.3925 74.6451 37.5172 76.7583 37.5172 78.9618V87.2699C37.5172 89.4734 38.3925 91.5866 39.9506 93.1447C41.5086 94.7028 43.6219 95.5781 45.8253 95.5781H54.1335C56.3369 95.5781 58.4502 94.7028 60.0082 93.1447C61.5663 91.5866 62.4417 89.4734 62.4417 87.2699V78.9618C62.4417 76.7583 61.5663 74.6451 60.0082 73.087C58.4502 71.5289 56.3369 70.6536 54.1335 70.6536H45.8253ZM70.7498 45.7291C70.7498 43.5256 71.6251 41.4124 73.1832 39.8543C74.7413 38.2963 76.8545 37.4209 79.058 37.4209H87.3662C89.5696 37.4209 91.6828 38.2963 93.2409 39.8543C94.799 41.4124 95.6743 43.5256 95.6743 45.7291V54.0373C95.6743 56.2407 94.799 58.3539 93.2409 59.912C91.6828 61.4701 89.5696 62.3454 87.3662 62.3454H79.058C76.8545 62.3454 74.7413 61.4701 73.1832 59.912C71.6251 58.3539 70.7498 56.2407 70.7498 54.0373V45.7291Z" fill="#333333"/>
<path d="M108.234 42.5171L108.211 57.1411C108.211 57.9579 107.781 58.7152 107.079 59.1345C106.377 59.5538 105.506 59.5726 104.787 59.1838L101.27 57.292L98.9487 56.0385V43.8052L104.752 40.4974C105.473 40.0883 106.355 40.0926 107.072 40.509C107.788 40.9239 108.231 41.6887 108.234 42.5171Z" fill="#333333"/>
<rect x="75.545" y="41.3685" width="15.0075" height="3.49553" rx="1.74776" fill="white"/>
<rect x="37.5172" y="36.491" width="25" height="25" rx="12.5" fill="#333333"/>
<path d="M84.3425 71.0136V94.2827C84.3425 94.9894 83.7565 95.5754 83.0498 95.5754C82.3431 95.5754 81.7571 94.9894 81.7571 94.2827V71.0136H84.3425Z" fill="#333333"/>
<path d="M78.516 71.0162L72.2248 94.6127C72.0868 95.1987 71.5525 95.5779 70.9836 95.5779C70.8803 95.5779 70.7595 95.5606 70.6562 95.5262C69.9668 95.3538 69.5532 94.6471 69.7427 93.9578L75.8615 70.999C75.9648 71.0163 76.051 71.0163 76.1545 71.0163L78.516 71.0162Z" fill="#333333"/>
<path d="M95.4424 95.5264C95.339 95.5608 95.2182 95.5781 95.1149 95.5781C94.5462 95.5781 94.0117 95.1989 93.8739 94.6129L87.5826 71.0163H89.9439C90.0472 71.0163 90.1334 71.0163 90.2369 70.999L96.3557 93.9578C96.5452 94.6471 96.1317 95.3541 95.4424 95.5264Z" fill="#333333"/>
<path d="M140.281 58.8729C139.724 58.8729 139.411 58.6642 139.098 58.2817L124.563 38.774V53.4483C124.563 55.9172 125.015 56.9951 126.232 57.4819C126.51 57.5863 126.65 57.7254 126.65 58.1079C126.65 58.4556 126.406 58.699 126.093 58.699H121.434C121.121 58.699 120.912 58.4556 120.912 58.1079C120.912 57.7254 121.051 57.5863 121.329 57.4819C122.546 56.9951 122.998 55.9172 122.998 53.4483V38.774C122.998 36.5833 122.546 36.0617 121.329 35.5749C121.051 35.4705 120.912 35.2967 120.912 34.949C120.912 34.5664 121.121 34.3578 121.434 34.3578H126.615C126.962 34.3578 127.275 34.4969 127.484 34.7751L139.724 51.4662V39.6086C139.724 37.1049 139.272 36.0269 138.055 35.5749C137.777 35.4705 137.638 35.2967 137.638 34.949C137.638 34.5664 137.881 34.3578 138.194 34.3578H142.854C143.167 34.3578 143.41 34.5664 143.41 34.949C143.41 35.2967 143.236 35.4705 142.993 35.5749C141.776 36.0269 141.324 37.1049 141.324 39.6086V57.7949C141.324 58.4208 140.941 58.8729 140.281 58.8729ZM153.064 58.8729C147.604 58.8729 143.953 55.2217 143.953 49.6928C143.953 44.1638 147.604 40.4779 153.064 40.4779C158.488 40.4779 162.174 44.1638 162.174 49.6928C162.174 55.2217 158.488 58.8729 153.064 58.8729ZM153.064 57.3429C156.124 57.3429 157.271 53.796 157.271 49.6928C157.271 45.5548 156.124 42.0427 153.064 42.0427C150.004 42.0427 148.856 45.5548 148.856 49.6928C148.856 53.796 150.004 57.3429 153.064 57.3429ZM163.737 58.699C163.424 58.699 163.216 58.4556 163.216 58.1079C163.216 57.7254 163.355 57.5863 163.633 57.4819C164.85 56.9603 164.989 56.1606 164.989 53.9699V37.8003C164.989 36.479 164.815 35.9921 163.737 35.7835C163.39 35.714 163.216 35.5053 163.216 35.1576C163.216 34.8099 163.424 34.5317 163.807 34.4274C164.12 34.3578 166.797 33.6971 168.397 33.3494C168.988 33.2103 169.544 33.6623 169.544 34.2883V53.9699C169.544 56.1606 169.649 56.9603 170.901 57.4819C171.144 57.5863 171.318 57.7254 171.318 58.1079C171.318 58.4556 171.074 58.699 170.761 58.699H163.737ZM173.246 58.699C172.933 58.699 172.724 58.4556 172.724 58.1079C172.724 57.7254 172.863 57.5863 173.141 57.4819C174.358 56.9603 174.497 56.1606 174.497 53.9699V37.8003C174.497 36.479 174.324 35.9921 173.246 35.7835C172.898 35.714 172.724 35.5053 172.724 35.1576C172.724 34.8099 172.933 34.5317 173.315 34.4274C173.628 34.3578 176.306 33.6971 177.905 33.3494C178.496 33.2103 179.053 33.6623 179.053 34.2883V53.9699C179.053 56.1606 179.157 56.9603 180.409 57.4819C180.652 57.5863 180.826 57.7254 180.826 58.1079C180.826 58.4556 180.583 58.699 180.27 58.699H173.246ZM184.189 66.0361C182.589 66.0361 181.651 65.2016 181.651 64.0888C181.651 63.0456 182.311 62.2806 183.528 62.2806C184.954 62.2806 185.789 62.8718 186.797 62.8718C188.153 62.8718 189.162 61.1331 190.205 58.5947L184.293 45.207C183.215 42.7729 182.798 42.3556 181.616 41.9036C181.372 41.7993 181.199 41.6254 181.199 41.2429C181.199 40.8952 181.442 40.6517 181.755 40.6517H190.066C190.379 40.6517 190.622 40.8952 190.622 41.2429C190.622 41.6254 190.448 41.7993 190.205 41.9036C188.953 42.3904 188.223 42.7729 189.231 45.2766L192.465 53.1701L195.421 45.6939C196.394 43.1902 195.977 42.3904 194.76 41.9036C194.482 41.7993 194.343 41.6254 194.343 41.2429C194.343 40.8952 194.551 40.6517 194.864 40.6517H199.802C200.115 40.6517 200.359 40.8952 200.359 41.2429C200.359 41.6254 200.185 41.7993 199.941 41.9036C198.759 42.3904 198.203 43.1902 197.229 45.5895C195.977 48.7539 194.273 52.8919 193.23 55.6042C190.97 61.4113 189.266 66.0361 184.189 66.0361ZM210.531 58.8729C210.079 58.8729 209.836 58.6295 209.697 58.3165L203.785 45.207C202.707 42.8077 202.255 42.3556 201.108 41.9036C200.83 41.7993 200.691 41.6254 200.691 41.2429C200.691 40.8952 200.899 40.6517 201.247 40.6517H209.071C209.384 40.6517 209.627 40.8952 209.627 41.2429C209.627 41.6254 209.488 41.7993 209.21 41.9036C207.993 42.3904 207.819 42.8077 208.827 45.3113L211.853 52.8571L214.669 45.1723C213.696 42.8077 213.417 42.3556 212.305 41.9036C212.027 41.7993 211.887 41.6254 211.887 41.2429C211.887 40.8952 212.131 40.6517 212.444 40.6517H220.129C220.442 40.6517 220.65 40.8952 220.65 41.2429C220.65 41.6254 220.511 41.7993 220.233 41.9036C219.016 42.3904 218.633 42.8425 219.538 45.2766L222.25 52.8571L224.997 45.6939C225.971 43.1902 225.588 42.3904 224.371 41.9036C224.093 41.7993 223.919 41.6254 223.919 41.2429C223.919 40.8952 224.162 40.6517 224.475 40.6517H229.413C229.726 40.6517 229.969 40.8952 229.969 41.2429C229.969 41.6254 229.796 41.7993 229.552 41.9036C228.37 42.3904 227.744 43.1902 226.805 45.5895C224.858 50.5273 221.867 58.0383 221.728 58.2817C221.52 58.699 221.311 58.8729 220.859 58.8729C220.407 58.8729 220.163 58.6295 219.99 58.3165L215.539 47.2934L211.435 58.2817C211.227 58.699 210.983 58.8729 210.531 58.8729ZM238.027 58.8729C232.568 58.8729 228.917 55.2217 228.917 49.6928C228.917 44.1638 232.568 40.4779 238.027 40.4779C243.452 40.4779 247.138 44.1638 247.138 49.6928C247.138 55.2217 243.452 58.8729 238.027 58.8729ZM238.027 57.3429C241.087 57.3429 242.235 53.796 242.235 49.6928C242.235 45.5548 241.087 42.0427 238.027 42.0427C234.967 42.0427 233.82 45.5548 233.82 49.6928C233.82 53.796 234.967 57.3429 238.027 57.3429ZM257.621 58.8729C252.162 58.8729 248.51 55.2217 248.51 49.6928C248.51 44.1638 252.162 40.4779 257.621 40.4779C263.046 40.4779 266.731 44.1638 266.731 49.6928C266.731 55.2217 263.046 58.8729 257.621 58.8729ZM257.621 57.3429C260.681 57.3429 261.828 53.796 261.828 49.6928C261.828 45.5548 260.681 42.0427 257.621 42.0427C254.561 42.0427 253.413 45.5548 253.413 49.6928C253.413 53.796 254.561 57.3429 257.621 57.3429ZM276.102 58.8729C271.269 58.8729 268.104 55.4303 268.104 50.6316C268.104 45.2418 271.234 40.4779 276.832 40.4779C278.571 40.4779 280.205 41.0343 281.492 41.6949V37.8003C281.492 36.479 281.318 35.9921 280.24 35.7835C279.858 35.714 279.718 35.5053 279.718 35.1576C279.718 34.8099 279.927 34.5317 280.31 34.4274C280.588 34.3578 283.265 33.6971 284.9 33.3494C285.491 33.2103 286.047 33.6623 286.047 34.2883V54.4915C286.047 55.8476 286.186 56.2301 287.299 56.404C287.647 56.4735 287.786 56.7169 287.786 57.0647C287.786 57.4124 287.577 57.6558 287.229 57.7601C286.916 57.8297 284.239 58.4904 282.639 58.8381C282.013 58.9772 281.492 58.5251 281.492 57.8992V56.2649C280.518 57.7949 278.71 58.8729 276.102 58.8729ZM277.18 56.6822C279.962 56.6822 281.492 53.9003 281.492 51.0837V46.8414C281.492 44.9288 279.962 41.9036 277.215 41.9036C274.12 41.9036 272.868 45.5548 272.868 49.4146C272.868 53.8655 274.537 56.6822 277.18 56.6822ZM121.434 94.699C121.121 94.699 120.912 94.4556 120.912 94.1079C120.912 93.7254 121.051 93.5863 121.329 93.4819C122.546 92.9603 122.685 92.1606 122.685 89.9699V75.087C122.685 72.8962 122.546 72.0617 121.329 71.5749C121.051 71.4705 120.912 71.2967 120.912 70.949C120.912 70.5664 121.121 70.3578 121.434 70.3578H136.143C136.769 70.3578 137.081 70.636 137.186 71.1228C137.29 71.6792 138.055 76.7908 138.09 77.3472C138.159 77.7645 137.881 78.147 137.394 78.147C136.977 78.147 136.699 77.9036 136.525 77.5558C135.378 74.8783 134.369 71.9226 131.692 71.9226H129.536C128.145 71.9226 127.38 72.1312 127.38 74.6001V81.6243H128.91C131.413 81.6243 131.483 80.9288 132.109 78.2861C132.178 77.9731 132.283 77.7297 132.665 77.7297C133.083 77.7297 133.222 77.9731 133.222 78.2861V86.5621C133.222 86.875 133.083 87.1185 132.665 87.1185C132.283 87.1185 132.178 86.875 132.109 86.5621C131.483 83.9193 131.413 83.2239 128.91 83.2239H127.38V90.0742C127.38 92.5778 128.075 92.9603 129.362 93.4819C129.64 93.5515 129.814 93.7254 129.814 94.1079C129.814 94.4556 129.57 94.699 129.258 94.699H121.434ZM139.696 94.699C139.383 94.699 139.139 94.4556 139.139 94.1079C139.139 93.7254 139.278 93.5863 139.557 93.4819C140.774 92.9603 140.913 92.1606 140.913 89.9699V80.9636C140.913 79.6075 140.774 79.1206 139.661 78.912C139.313 78.8772 139.139 78.6338 139.139 78.2861C139.139 77.9384 139.348 77.6949 139.73 77.5906C140.043 77.5211 142.721 76.8604 144.321 76.5127C144.912 76.3736 145.468 76.8256 145.468 77.4515V89.9699C145.468 92.1606 145.607 92.9603 146.824 93.4819C147.068 93.5863 147.241 93.7254 147.241 94.1079C147.241 94.4556 146.998 94.699 146.685 94.699H139.696ZM143.103 74.3567C141.469 74.4958 140.043 73.5222 139.904 72.2008C139.8 70.8446 141.017 69.6276 142.617 69.4885C144.251 69.3146 145.677 70.2883 145.816 71.6096C145.955 72.9658 144.738 74.1829 143.103 74.3567ZM149.169 94.699C148.856 94.699 148.648 94.4556 148.648 94.1079C148.648 93.7254 148.787 93.5863 149.065 93.4819C150.282 92.9603 150.421 92.1606 150.421 89.9699V73.8003C150.421 72.479 150.247 71.9921 149.169 71.7835C148.821 71.714 148.648 71.5053 148.648 71.1576C148.648 70.8099 148.856 70.5317 149.239 70.4274C149.552 70.3578 152.229 69.6971 153.829 69.3494C154.42 69.2103 154.976 69.6623 154.976 70.2883V89.9699C154.976 92.1606 155.081 92.9603 156.332 93.4819C156.576 93.5863 156.75 93.7254 156.75 94.1079C156.75 94.4556 156.506 94.699 156.193 94.699H149.169ZM158.677 94.699C158.365 94.699 158.156 94.4556 158.156 94.1079C158.156 93.7254 158.295 93.5863 158.573 93.4819C159.79 92.9603 159.929 92.1606 159.929 89.9699V80.9636C159.929 79.6075 159.755 79.1206 158.677 78.912C158.33 78.8772 158.156 78.6338 158.156 78.2861C158.156 77.9384 158.365 77.6949 158.747 77.5906C159.06 77.5211 161.738 76.8604 163.337 76.5127C163.928 76.3736 164.485 76.8256 164.485 77.4515V79.8856C165.597 77.9384 167.719 76.4779 170.083 76.4779C173.039 76.4779 174.638 78.0774 175.299 80.2334C176.342 78.0427 178.707 76.4779 181.28 76.4779C185.314 76.4779 186.879 79.4684 186.879 82.8414V89.9699C186.879 92.1606 187.018 92.9603 188.235 93.4819C188.478 93.5863 188.652 93.7254 188.652 94.1079C188.652 94.4556 188.409 94.699 188.096 94.699H181.106C180.793 94.699 180.55 94.4556 180.55 94.1079C180.55 93.7254 180.689 93.5863 180.967 93.4819C182.184 92.9603 182.323 92.1606 182.323 89.9699V83.4325C182.323 81.1723 181.454 79.5727 179.402 79.5727C177.316 79.5727 175.682 81.3461 175.682 83.5716V89.9699C175.682 92.1606 175.786 92.9603 177.038 93.4819C177.281 93.5863 177.455 93.7254 177.455 94.1079C177.455 94.4556 177.212 94.699 176.899 94.699H169.909C169.561 94.699 169.353 94.4556 169.353 94.1079C169.353 93.7254 169.492 93.5863 169.77 93.4819C170.987 92.9603 171.126 92.1606 171.126 89.9699V83.4325C171.126 81.1723 170.257 79.5727 168.205 79.5727C166.119 79.5727 164.485 81.3461 164.485 83.5716V89.9699C164.485 92.1606 164.589 92.9603 165.841 93.4819C166.084 93.5863 166.258 93.7254 166.258 94.1079C166.258 94.4556 166.015 94.699 165.702 94.699H158.677ZM190.564 94.699C190.251 94.699 190.043 94.4556 190.043 94.1079C190.043 93.7254 190.182 93.5863 190.46 93.4819C191.677 92.9603 191.816 92.1606 191.816 89.9699V80.9636C191.816 79.6075 191.642 79.1206 190.564 78.912C190.216 78.8772 190.043 78.6338 190.043 78.2861C190.043 77.9384 190.251 77.6949 190.634 77.5906C190.947 77.5211 193.624 76.8604 195.224 76.5127C195.815 76.3736 196.371 76.8256 196.371 77.4515V79.8856C197.484 77.9384 199.605 76.4779 201.97 76.4779C204.925 76.4779 206.525 78.0774 207.186 80.2334C208.229 78.0427 210.594 76.4779 213.167 76.4779C217.2 76.4779 218.765 79.4684 218.765 82.8414V89.9699C218.765 92.1606 218.904 92.9603 220.121 93.4819C220.365 93.5863 220.539 93.7254 220.539 94.1079C220.539 94.4556 220.295 94.699 219.982 94.699H212.993C212.68 94.699 212.436 94.4556 212.436 94.1079C212.436 93.7254 212.576 93.5863 212.854 93.4819C214.071 92.9603 214.21 92.1606 214.21 89.9699V83.4325C214.21 81.1723 213.341 79.5727 211.289 79.5727C209.203 79.5727 207.568 81.3461 207.568 83.5716V89.9699C207.568 92.1606 207.673 92.9603 208.924 93.4819C209.168 93.5863 209.342 93.7254 209.342 94.1079C209.342 94.4556 209.098 94.699 208.785 94.699H201.796C201.448 94.699 201.24 94.4556 201.24 94.1079C201.24 93.7254 201.379 93.5863 201.657 93.4819C202.874 92.9603 203.013 92.1606 203.013 89.9699V83.4325C203.013 81.1723 202.144 79.5727 200.092 79.5727C198.006 79.5727 196.371 81.3461 196.371 83.5716V89.9699C196.371 92.1606 196.476 92.9603 197.727 93.4819C197.971 93.5863 198.145 93.7254 198.145 94.1079C198.145 94.4556 197.901 94.699 197.588 94.699H190.564ZM226.728 94.8729C224.085 94.8729 221.755 92.856 221.755 89.8308C221.755 85.8666 225.893 84.8234 229.51 83.8846L231.735 83.363V82.285C231.735 79.9204 231.422 77.9731 229.858 77.9731C227.18 77.9731 226.937 81.7634 224.607 81.9373C223.251 82.0416 222.486 81.1723 222.625 79.8856C222.833 77.7645 226.971 76.4779 230.101 76.4779C234.413 76.4779 236.291 78.8077 236.291 82.6675V90.1785C236.291 91.3956 236.43 92.0215 237.473 91.639C237.821 91.5346 238.064 91.5694 238.238 91.8476C238.447 92.1953 238.203 92.6474 237.925 93.0299C237.682 93.3429 236.012 94.7686 234.343 94.7686C233.022 94.7686 232.326 93.9688 232.048 92.5083C230.866 94.0035 229.093 94.8729 226.728 94.8729ZM228.675 92.5083C229.962 92.5083 231.005 91.6737 231.457 90.4219C231.561 90.1785 231.735 89.5874 231.735 89.031V84.9278C231.144 85.0321 229.649 85.4146 228.536 86.0405C227.215 86.7707 226.345 87.8835 226.345 89.4135C226.345 91.3956 227.319 92.5083 228.675 92.5083ZM239.736 94.699C239.389 94.699 239.18 94.4556 239.18 94.1079C239.18 93.7254 239.319 93.5863 239.597 93.4819C240.814 92.9603 240.953 92.1606 240.953 89.9699V73.696C240.953 72.3747 240.814 71.9921 239.702 71.7835C239.354 71.714 239.18 71.5053 239.18 71.1576C239.18 70.8099 239.389 70.5317 239.771 70.4274C240.084 70.3578 242.762 69.6971 244.361 69.3494C244.952 69.2103 245.509 69.6623 245.509 70.2883V85.0321L250.447 80.4768C251.733 79.2597 251.385 78.147 250.307 77.9036C250.029 77.834 249.89 77.5906 249.89 77.2429C249.89 76.8952 250.134 76.6517 250.447 76.6517H256.775C257.088 76.6517 257.332 76.8952 257.332 77.2429C257.332 77.6254 257.158 77.7993 256.914 77.9036C255.697 78.2513 253.924 79.2945 251.907 81.1723L250.203 82.8066L255.037 90.1785C256.706 92.7169 257.575 93.0994 258.862 93.4819C259.14 93.5515 259.279 93.7601 259.279 94.1079C259.279 94.4556 259.035 94.699 258.723 94.699H253.159C252.811 94.699 252.533 94.5251 252.359 94.247L246.83 85.9362L245.509 87.2228V89.9699C245.509 92.1606 245.613 92.9603 246.865 93.4819C247.108 93.5863 247.282 93.7254 247.282 94.1079C247.282 94.4556 247.039 94.699 246.726 94.699H239.736ZM267.123 94.8729C261.421 94.8729 258.256 91.2912 258.256 86.11C258.256 80.6507 262.22 76.4779 267.158 76.4779C272.235 76.4779 274.287 80.1291 274.287 83.3282C274.287 83.8846 273.869 84.3018 273.348 84.3018H262.707C262.638 88.8223 264.933 91.7433 268.306 91.7433C270.636 91.7433 272.166 90.6305 273.244 89.0658C273.383 88.8571 273.696 88.6485 274.043 88.7876C274.356 88.9267 274.391 89.2396 274.322 89.5874C273.869 91.5694 271.957 94.8729 267.123 94.8729ZM269.905 82.7023C270.079 80.5463 269.419 78.0079 266.845 78.0079C264.272 78.0079 263.125 80.0943 262.777 82.7023H269.905ZM276.309 94.699C275.996 94.699 275.753 94.4556 275.753 94.1079C275.753 93.7254 275.927 93.5863 276.17 93.4819C277.422 92.9603 277.526 92.1606 277.526 89.9699V80.9636C277.526 79.6075 277.387 79.1206 276.275 78.9468C275.927 78.8772 275.788 78.6338 275.788 78.2861C275.788 77.9384 275.996 77.6949 276.344 77.5906C276.657 77.5211 279.335 76.8604 280.934 76.5127C281.525 76.3736 282.082 76.8256 282.082 77.4515V80.2334C282.951 78.2513 284.516 76.4779 286.359 76.4779C287.715 76.4779 288.236 77.4515 288.236 78.5643C288.236 79.8161 287.715 80.9984 285.941 80.9984C283.16 80.9984 282.082 81.7634 282.082 84.4757V90.0742C282.082 92.5778 282.777 92.9603 284.098 93.4819C284.377 93.5515 284.516 93.7254 284.516 94.1079C284.516 94.4556 284.272 94.699 283.959 94.699H276.309Z" fill="#333333"/>
</svg>
