<svg width="55" height="55" viewBox="0 0 55 55" fill="none" xmlns="http://www.w3.org/2000/svg">
<path fill-rule="evenodd" clip-rule="evenodd" d="M0.833008 27.6022C0.833008 12.8746 12.7721 0.935547 27.4997 0.935547C34.5721 0.935547 41.3549 3.74507 46.3559 8.74601C51.3568 13.747 54.1663 20.5298 54.1663 27.6022C54.1663 42.3298 42.2273 54.2689 27.4997 54.2689C12.7721 54.2689 0.833008 42.3298 0.833008 27.6022ZM22.6198 39.0156L38.1664 29.3089C38.7482 28.9363 39.1001 28.2931 39.1001 27.6022C39.1001 26.9114 38.7482 26.2681 38.1664 25.8956L22.5664 16.1889C21.952 15.8015 21.1758 15.7777 20.5388 16.1266C19.9018 16.4756 19.504 17.1425 19.4998 17.8689V37.3356C19.4912 38.0796 19.8963 38.7669 20.5514 39.1196C21.2065 39.4724 22.0033 39.4323 22.6198 39.0156Z" fill="white"/>
</svg>
