<svg width="135" height="24" viewBox="0 0 135 24" fill="none" xmlns="http://www.w3.org/2000/svg">
<path fill-rule="evenodd" clip-rule="evenodd" d="M36.0695 0.852539L24.56 23.3525H13.7493L18.566 14.0275H18.3499C14.3761 19.186 8.44714 22.5819 -0.000732422 23.3525V14.1567C-0.000732422 14.1567 5.40358 13.8374 8.58062 10.4972H-0.000732422V0.852717H9.64378V8.78519L9.86024 8.7843L13.8014 0.852717H21.0953V8.73489L21.3116 8.73454L25.4006 0.852539H36.0695Z" fill="black"/>
<path d="M98.8323 20.869H101.938V3.04004H98.8323V20.869Z" fill="black"/>
<path fill-rule="evenodd" clip-rule="evenodd" d="M81.7085 20.687C82.3835 20.9676 83.07 21.108 83.7678 21.108C84.9207 21.108 85.9523 20.8274 86.8626 20.266C87.7727 19.7047 88.4782 18.9311 88.9788 17.945C89.4795 16.9514 89.7297 15.8249 89.7297 14.5657C89.7297 13.3066 89.4718 12.1802 88.9561 11.1866C88.4402 10.1929 87.7235 9.42303 86.8056 8.8769C85.8878 8.32318 84.8448 8.05012 83.6767 8.0577C82.9335 8.0577 82.2205 8.20182 81.5377 8.49006C80.8551 8.7783 80.2862 9.18789 79.8311 9.71886C79.796 9.75928 79.7618 9.80011 79.7287 9.84135V3.05148H76.6112V20.8691H79.706L79.6997 19.2046C79.7797 19.3027 79.8653 19.3986 79.9562 19.4924C80.4492 20.0006 81.0333 20.3987 81.7085 20.687ZM84.8942 17.8085C84.386 18.1195 83.8057 18.275 83.1533 18.275C82.5086 18.275 81.917 18.1156 81.3785 17.7971C80.8398 17.4709 80.4113 17.0272 80.0927 16.4659C79.7817 15.9046 79.6262 15.2674 79.6262 14.5544C79.6187 13.8414 79.7703 13.2042 80.0813 12.6429C80.4 12.0741 80.8285 11.6341 81.3671 11.3231C81.9056 11.0045 82.5011 10.849 83.1533 10.8566C83.8057 10.849 84.386 11.0007 84.8942 11.3117C85.41 11.6151 85.8043 12.0513 86.0775 12.6202C86.3581 13.1815 86.4985 13.8262 86.4985 14.5544C86.4985 15.2826 86.3581 15.9274 86.0775 16.4886C85.8043 17.05 85.41 17.4899 84.8942 17.8085Z" fill="black"/>
<path d="M40.5693 4.12097H44.1192L47.2947 15.718L50.6728 4.12097H53.6311L57.2947 15.4852L60.344 4.12097H63.598L58.7966 20.8691H55.736L52.0105 9.76707L48.5907 20.8691H45.496L40.5693 4.12097Z" fill="black"/>
<path fill-rule="evenodd" clip-rule="evenodd" d="M68.8405 21.1648C67.604 21.1724 66.489 20.8993 65.4954 20.3457C64.5093 19.7843 63.7319 19.0068 63.1629 18.0132C62.6017 17.0196 62.321 15.8856 62.321 14.6112C62.321 13.3748 62.6093 12.256 63.1858 11.2548C63.7622 10.2536 64.5434 9.47228 65.5295 8.91098C66.5157 8.34968 67.6154 8.06903 68.829 8.06903C70.1944 8.06903 71.389 8.37243 72.413 8.97924C73.4447 9.58606 74.2145 10.447 74.7228 11.562C75.2385 12.6694 75.4244 13.9399 75.2803 15.3736H65.5344C65.5617 15.9447 65.7042 16.4643 65.9619 16.9323C66.2502 17.4481 66.6522 17.8501 67.1679 18.1383C67.6838 18.4266 68.2602 18.5707 68.8974 18.5707C69.3828 18.5631 69.8342 18.4797 70.2513 18.3204C70.6685 18.1536 71.0212 17.9298 71.3094 17.6491C71.6053 17.3684 71.8139 17.0499 71.9353 16.6934H75.1893C74.9921 17.5657 74.5977 18.3432 74.006 19.0258C73.4143 19.7009 72.671 20.2281 71.7759 20.6073C70.8809 20.9866 69.9024 21.1724 68.8405 21.1648ZM65.9733 12.2447C65.7915 12.5616 65.6655 12.9029 65.5954 13.2687H72.0558C72.0089 12.8067 71.8663 12.3857 71.628 12.0057C71.3549 11.5582 70.9833 11.2131 70.513 10.9704C70.0428 10.72 69.5118 10.5949 68.9202 10.5949C68.2906 10.5949 67.7179 10.739 67.202 11.0272C66.6863 11.3155 66.2767 11.7213 65.9733 12.2447Z" fill="black"/>
<path d="M92.017 8.33074C92.017 7.31433 92.2483 6.41169 92.711 5.62283C93.1736 4.82639 93.8223 4.20819 94.6566 3.76826C95.4985 3.32073 96.4809 3.08938 97.6034 3.07422V5.83901C97.08 5.84659 96.6325 5.95658 96.2609 6.16897C95.8968 6.37377 95.6161 6.67338 95.4189 7.06781C95.2374 7.43093 95.1394 7.85191 95.125 8.33074H97.5352V10.959H95.1232V20.8691H92.017V10.959H90.0145V8.33074H92.017Z" fill="black"/>
<path fill-rule="evenodd" clip-rule="evenodd" d="M109.834 21.142C108.567 21.142 107.433 20.8651 106.432 20.3115C105.438 19.7501 104.657 18.9765 104.088 17.9904C103.527 16.9967 103.246 15.8704 103.246 14.6111C103.246 13.3445 103.527 12.2143 104.088 11.2206C104.657 10.2194 105.438 9.44189 106.432 8.88817C107.433 8.33445 108.567 8.05759 109.834 8.05759C111.108 8.05759 112.246 8.33445 113.247 8.88817C114.256 9.44189 115.041 10.2156 115.603 11.2092C116.164 12.2029 116.448 13.3369 116.456 14.6111C116.448 15.8704 116.164 16.9967 115.603 17.9904C115.049 18.9765 114.268 19.7501 113.259 20.3115C112.25 20.8651 111.108 21.142 109.834 21.142ZM109.834 18.2862C110.502 18.2862 111.093 18.1345 111.609 17.8311C112.125 17.5201 112.523 17.0877 112.804 16.534C113.084 15.9727 113.225 15.3317 113.225 14.6111C113.225 13.883 113.084 13.2382 112.804 12.677C112.523 12.1157 112.125 11.6833 111.609 11.3799C111.093 11.0689 110.502 10.9134 109.834 10.9134C109.174 10.9134 108.586 11.0689 108.07 11.3799C107.562 11.6833 107.168 12.1157 106.887 12.677C106.607 13.2382 106.47 13.883 106.478 14.6111C106.478 15.3317 106.618 15.9727 106.899 16.534C107.187 17.0877 107.581 17.5201 108.082 17.8311C108.59 18.1345 109.174 18.2862 109.834 18.2862Z" fill="black"/>
<path d="M119.812 8.33072H116.354L120.097 20.8691H123.123L125.585 12.8608L128.243 20.8691H131.224L134.979 8.33072H131.85L129.72 16.1351L127.367 8.33072H124.341L121.999 16.3069L119.812 8.33072Z" fill="black"/>
</svg>
