<svg width="20" height="20" viewBox="0 0 20 20" fill="none" xmlns="http://www.w3.org/2000/svg">
<path d="M14.1401 1.2911L5.11012 4.2911C-0.959883 6.3211 -0.959883 9.6311 5.11012 11.6511L7.79012 12.5411L8.68012 15.2211C10.7001 21.2911 14.0201 21.2911 16.0401 15.2211L19.0501 6.2011C20.3901 2.1511 18.1901 -0.0589024 14.1401 1.2911ZM14.4601 6.6711L10.6601 10.4911C10.5101 10.6411 10.3201 10.7111 10.1301 10.7111C9.94012 10.7111 9.75012 10.6411 9.60012 10.4911C9.46064 10.35 9.38242 10.1595 9.38242 9.9611C9.38242 9.76267 9.46064 9.57224 9.60012 9.4311L13.4001 5.6111C13.6901 5.3211 14.1701 5.3211 14.4601 5.6111C14.7501 5.9011 14.7501 6.3811 14.4601 6.6711Z" fill="#181818"/>
</svg>
