<svg width="17" height="18" viewBox="0 0 17 18" fill="none" xmlns="http://www.w3.org/2000/svg">
<path fill-rule="evenodd" clip-rule="evenodd" d="M7.14149 0.560632C7.24845 0.5753 7.32843 0.666049 7.32952 0.773916L7.39851 7.24463L11.1077 6.71895C11.1808 6.70851 11.2543 6.73604 11.3027 6.79186C11.3511 6.84768 11.3679 6.92428 11.3472 6.99523L8.57662 16.5072C8.5467 16.61 8.44637 16.6758 8.34006 16.6623C8.23386 16.6487 8.15323 16.5598 8.15019 16.4526L7.96194 9.94221L4.37504 10.5032C4.30148 10.5147 4.22714 10.4878 4.17798 10.4319C4.12881 10.3759 4.11165 10.2988 4.13246 10.2273L6.90297 0.715374C6.93322 0.611806 7.03463 0.545964 7.14149 0.560632ZM4.64608 10.0202L8.13876 9.47399C8.20046 9.4643 8.26335 9.48161 8.31145 9.52165C8.35954 9.56158 8.38805 9.62023 8.3899 9.68269L8.54528 15.0584L10.835 7.19719L7.21418 7.71046C7.15215 7.71916 7.08926 7.70088 7.04182 7.65997C6.99427 7.61916 6.96663 7.55986 6.96597 7.49729L6.91004 2.24779L4.64608 10.0202Z" fill="#344054" stroke="#344054" stroke-width="0.5"/>
<path fill-rule="evenodd" clip-rule="evenodd" d="M16.2381 9.93898C16.3027 10.0255 16.2941 10.1462 16.218 10.2227L13.8428 12.6112L15.354 13.7659C15.4127 13.8108 15.4447 13.8824 15.4388 13.956C15.433 14.0297 15.3902 14.0954 15.3251 14.1304L10.6304 16.6594C10.536 16.7102 10.4188 16.6847 10.354 16.5995C10.2891 16.5142 10.296 16.3944 10.3701 16.3172L12.7174 13.869L11.2394 12.7729C11.1795 12.7285 11.1466 12.6567 11.1519 12.5825C11.1573 12.5082 11.2002 12.4418 11.2658 12.4065L15.9606 9.8776C16.0556 9.82646 16.1736 9.85258 16.2381 9.93898ZM11.7738 12.6273L13.1751 13.6665C13.2252 13.7037 13.257 13.7607 13.2622 13.8229C13.2676 13.8853 13.2457 13.9468 13.2025 13.9919L11.6409 15.6206L14.8219 13.9071L13.3815 12.8065C13.3318 12.7684 13.3007 12.7109 13.2965 12.6483C13.2923 12.5859 13.3151 12.5246 13.3593 12.4801L14.8734 10.9576L11.7738 12.6273Z" fill="#344054" stroke="#344054" stroke-width="0.5"/>
<path fill-rule="evenodd" clip-rule="evenodd" d="M0.665797 10.7283C0.59657 10.6456 0.477181 10.6261 0.385202 10.6825C0.293222 10.7389 0.256411 10.8541 0.298684 10.9533L2.3885 15.8593C2.41769 15.9277 2.47985 15.9766 2.55332 15.9886C2.62678 16.0008 2.70134 15.9745 2.75096 15.919L3.97738 14.5472L6.20102 17.1082C6.27132 17.1891 6.38992 17.2068 6.48078 17.15C6.57164 17.0932 6.60755 16.9788 6.56566 16.8803L4.47579 11.9743C4.44683 11.9063 4.38535 11.8577 4.31252 11.845C4.23969 11.8325 4.16547 11.8578 4.11543 11.9122L2.82759 13.3117L0.665797 10.7283ZM3.81752 14.073L2.65473 15.3736L1.27494 12.1345L2.65293 13.7812C2.69312 13.8292 2.75208 13.8576 2.8147 13.8591C2.87732 13.8606 2.93755 13.835 2.97997 13.7889L4.20746 12.4549L5.62345 15.7792L4.14409 14.0754C4.10311 14.0282 4.04383 14.0008 3.98134 14.0004C3.91885 14 3.85917 14.0264 3.81752 14.073Z" fill="#344054" stroke="#344054" stroke-width="0.5"/>
</svg>
