<svg width="17" height="17" viewBox="0 0 17 17" fill="none" xmlns="http://www.w3.org/2000/svg">
<path d="M8.28133 10.8704C9.3859 10.8704 10.2813 9.97501 10.2813 8.87044C10.2813 7.76587 9.3859 6.87044 8.28133 6.87044C7.17676 6.87044 6.28133 7.76587 6.28133 8.87044C6.28133 9.97501 7.17676 10.8704 8.28133 10.8704Z" stroke="#344054" stroke-width="1.5" stroke-linecap="round" stroke-linejoin="round"/>
<path d="M13.2147 10.8704C13.1259 11.0715 13.0994 11.2946 13.1387 11.5108C13.1779 11.7271 13.281 11.9267 13.4347 12.0838L13.4747 12.1238C13.5986 12.2476 13.697 12.3947 13.7641 12.5565C13.8312 12.7184 13.8657 12.8919 13.8657 13.0671C13.8657 13.2423 13.8312 13.4158 13.7641 13.5777C13.697 13.7396 13.5986 13.8866 13.4747 14.0104C13.3508 14.1344 13.2038 14.2328 13.0419 14.2999C12.8801 14.367 12.7066 14.4015 12.5313 14.4015C12.3561 14.4015 12.1826 14.367 12.0207 14.2999C11.8589 14.2328 11.7118 14.1344 11.588 14.0104L11.548 13.9704C11.3909 13.8168 11.1913 13.7137 10.9751 13.6744C10.7588 13.6352 10.5357 13.6617 10.3347 13.7504C10.1375 13.835 9.96932 13.9753 9.85087 14.1541C9.73242 14.333 9.66885 14.5426 9.668 14.7571V14.8704C9.668 15.2241 9.52752 15.5632 9.27747 15.8133C9.02742 16.0633 8.68829 16.2038 8.33466 16.2038C7.98104 16.2038 7.6419 16.0633 7.39186 15.8133C7.14181 15.5632 7.00133 15.2241 7.00133 14.8704V14.8104C6.99617 14.5898 6.92474 14.3758 6.79634 14.1962C6.66793 14.0167 6.48849 13.88 6.28133 13.8038C6.08025 13.715 5.8572 13.6886 5.64094 13.7278C5.42468 13.767 5.22512 13.8701 5.068 14.0238L5.028 14.0638C4.90417 14.1877 4.75712 14.2861 4.59525 14.3532C4.43339 14.4203 4.25989 14.4548 4.08466 14.4548C3.90944 14.4548 3.73594 14.4203 3.57408 14.3532C3.41221 14.2861 3.26516 14.1877 3.14133 14.0638C3.01736 13.9399 2.91902 13.7929 2.85192 13.631C2.78482 13.4692 2.75028 13.2957 2.75028 13.1204C2.75028 12.9452 2.78482 12.7717 2.85192 12.6099C2.91902 12.448 3.01736 12.3009 3.14133 12.1771L3.18133 12.1371C3.33502 11.98 3.43812 11.7804 3.47733 11.5642C3.51655 11.3479 3.49007 11.1249 3.40133 10.9238C3.31682 10.7266 3.1765 10.5584 2.99764 10.44C2.81878 10.3215 2.60919 10.258 2.39466 10.2571H2.28133C1.92771 10.2571 1.58857 10.1166 1.33852 9.86658C1.08847 9.61654 0.947998 9.2774 0.947998 8.92378C0.947998 8.57015 1.08847 8.23102 1.33852 7.98097C1.58857 7.73092 1.92771 7.59044 2.28133 7.59044H2.34133C2.56199 7.58528 2.776 7.51385 2.95553 7.38545C3.13506 7.25704 3.27181 7.0776 3.348 6.87044C3.43674 6.66937 3.46321 6.44631 3.424 6.23005C3.38479 6.01379 3.28169 5.81423 3.128 5.65711L3.088 5.61711C2.96403 5.49328 2.86568 5.34623 2.79858 5.18436C2.73149 5.0225 2.69695 4.849 2.69695 4.67378C2.69695 4.49856 2.73149 4.32505 2.79858 4.16319C2.86568 4.00132 2.96403 3.85427 3.088 3.73044C3.21183 3.60647 3.35888 3.50813 3.52074 3.44103C3.68261 3.37393 3.85611 3.33939 4.03133 3.33939C4.20655 3.33939 4.38005 3.37393 4.54192 3.44103C4.70378 3.50813 4.85083 3.60647 4.97466 3.73044L5.01466 3.77044C5.17178 3.92413 5.37134 4.02723 5.58761 4.06645C5.80387 4.10566 6.02692 4.07919 6.228 3.99044H6.28133C6.47851 3.90593 6.64668 3.76561 6.76513 3.58675C6.88358 3.40789 6.94714 3.1983 6.948 2.98378V2.87044C6.948 2.51682 7.08847 2.17768 7.33852 1.92763C7.58857 1.67759 7.92771 1.53711 8.28133 1.53711C8.63495 1.53711 8.97409 1.67759 9.22414 1.92763C9.47419 2.17768 9.61466 2.51682 9.61466 2.87044V2.93044C9.61552 3.14497 9.67909 3.35456 9.79754 3.53342C9.91599 3.71228 10.0842 3.8526 10.2813 3.93711C10.4824 4.02585 10.7055 4.05232 10.9217 4.01311C11.138 3.9739 11.3375 3.8708 11.4947 3.71711L11.5347 3.67711C11.6585 3.55314 11.8055 3.4548 11.9674 3.3877C12.1293 3.3206 12.3028 3.28606 12.478 3.28606C12.6532 3.28606 12.8267 3.3206 12.9886 3.3877C13.1504 3.4548 13.2975 3.55314 13.4213 3.67711C13.5453 3.80094 13.6436 3.94799 13.7107 4.10986C13.7778 4.27172 13.8124 4.44522 13.8124 4.62044C13.8124 4.79566 13.7778 4.96917 13.7107 5.13103C13.6436 5.29289 13.5453 5.43995 13.4213 5.56378L13.3813 5.60378C13.2276 5.7609 13.1245 5.96045 13.0853 6.17672C13.0461 6.39298 13.0726 6.61603 13.1613 6.81711V6.87044C13.2458 7.06762 13.3862 7.23579 13.565 7.35424C13.7439 7.47269 13.9535 7.53625 14.168 7.53711H14.2813C14.635 7.53711 14.9741 7.67759 15.2241 7.92763C15.4742 8.17768 15.6147 8.51682 15.6147 8.87044C15.6147 9.22406 15.4742 9.5632 15.2241 9.81325C14.9741 10.0633 14.635 10.2038 14.2813 10.2038H14.2213C14.0068 10.2046 13.7972 10.2682 13.6184 10.3866C13.4395 10.5051 13.2992 10.6733 13.2147 10.8704Z" stroke="#344054" stroke-width="1.5" stroke-linecap="round" stroke-linejoin="round"/>
</svg>
