<svg width="18" height="18" viewBox="0 0 18 18" fill="none" xmlns="http://www.w3.org/2000/svg">
<path d="M16.8 8.9999V11.3999C16.8 11.559 16.7368 11.7116 16.6243 11.8242C16.5117 11.9367 16.3591 11.9999 16.2 11.9999C16.0409 11.9999 15.8883 11.9367 15.7757 11.8242C15.6632 11.7116 15.6 11.559 15.6 11.3999C15.6 11.3999 15.672 10.7999 14.4 10.7999H13.2V13.7999C13.2 13.959 13.1368 14.1116 13.0243 14.2242C12.9117 14.3367 12.7591 14.3999 12.6 14.3999H3C2.84087 14.3999 2.68826 14.3367 2.57574 14.2242C2.46322 14.1116 2.4 13.959 2.4 13.7999V8.9999C2.4 8.84077 2.46322 8.68816 2.57574 8.57564C2.68826 8.46312 2.84087 8.3999 3 8.3999H12.6C12.7591 8.3999 12.9117 8.46312 13.0243 8.57564C13.1368 8.68816 13.2 8.84077 13.2 8.9999V9.5999H14.4C15.672 9.5999 15.6 8.9999 15.6 8.9999C15.6 8.84077 15.6632 8.68816 15.7757 8.57564C15.8883 8.46312 16.0409 8.3999 16.2 8.3999C16.3591 8.3999 16.5117 8.46312 16.6243 8.57564C16.7368 8.68816 16.8 8.84077 16.8 8.9999ZM4.8 3.5999C4.16348 3.5999 3.55303 3.85276 3.10295 4.30285C2.65286 4.75293 2.4 5.36338 2.4 5.9999C2.4 6.63642 2.65286 7.24687 3.10295 7.69696C3.55303 8.14705 4.16348 8.3999 4.8 8.3999C5.43652 8.3999 6.04697 8.14705 6.49706 7.69696C6.94715 7.24687 7.2 6.63642 7.2 5.9999C7.2 5.36338 6.94715 4.75293 6.49706 4.30285C6.04697 3.85276 5.43652 3.5999 4.8 3.5999ZM4.8 7.1999C4.48174 7.1999 4.17652 7.07347 3.95147 6.84843C3.72643 6.62339 3.6 6.31816 3.6 5.9999C3.6 5.68164 3.72643 5.37642 3.95147 5.15137C4.17652 4.92633 4.48174 4.7999 4.8 4.7999C5.11826 4.7999 5.42349 4.92633 5.64853 5.15137C5.87357 5.37642 6 5.68164 6 5.9999C6 6.31816 5.87357 6.62339 5.64853 6.84843C5.42349 7.07347 5.11826 7.1999 4.8 7.1999ZM10.2 2.3999C9.40435 2.3999 8.64129 2.71597 8.07868 3.27858C7.51607 3.84119 7.2 4.60425 7.2 5.3999C7.2 6.19555 7.51607 6.95861 8.07868 7.52122C8.64129 8.08383 9.40435 8.3999 10.2 8.3999C10.9957 8.3999 11.7587 8.08383 12.3213 7.52122C12.8839 6.95861 13.2 6.19555 13.2 5.3999C13.2 4.60425 12.8839 3.84119 12.3213 3.27858C11.7587 2.71597 10.9957 2.3999 10.2 2.3999ZM10.2 7.1999C9.72261 7.1999 9.26477 7.01026 8.92721 6.6727C8.58964 6.33513 8.4 5.87729 8.4 5.3999C8.4 4.92251 8.58964 4.46468 8.92721 4.12711C9.26477 3.78954 9.72261 3.5999 10.2 3.5999C10.6774 3.5999 11.1352 3.78954 11.4728 4.12711C11.8104 4.46468 12 4.92251 12 5.3999C12 5.87729 11.8104 6.33513 11.4728 6.6727C11.1352 7.01026 10.6774 7.1999 10.2 7.1999Z" fill="#A5A5A5"/>
</svg>
