<svg width="15" height="13" viewBox="0 0 15 13" fill="none" xmlns="http://www.w3.org/2000/svg">
<path d="M14.8 7V9.4C14.8 9.55913 14.7368 9.71174 14.6243 9.82427C14.5118 9.93679 14.3592 10 14.2 10C14.0409 10 13.8883 9.93679 13.7758 9.82427C13.6632 9.71174 13.6 9.55913 13.6 9.4C13.6 9.4 13.672 8.8 12.4 8.8H11.2V11.8C11.2 11.9591 11.1368 12.1117 11.0243 12.2243C10.9118 12.3368 10.7592 12.4 10.6 12.4H1.00002C0.840895 12.4 0.688282 12.3368 0.57576 12.2243C0.463239 12.1117 0.400024 11.9591 0.400024 11.8V7C0.400024 6.84087 0.463239 6.68826 0.57576 6.57574C0.688282 6.46321 0.840895 6.4 1.00002 6.4H10.6C10.7592 6.4 10.9118 6.46321 11.0243 6.57574C11.1368 6.68826 11.2 6.84087 11.2 7V7.6H12.4C13.672 7.6 13.6 7 13.6 7C13.6 6.84087 13.6632 6.68826 13.7758 6.57574C13.8883 6.46321 14.0409 6.4 14.2 6.4C14.3592 6.4 14.5118 6.46321 14.6243 6.57574C14.7368 6.68826 14.8 6.84087 14.8 7ZM2.80002 1.6C2.1635 1.6 1.55306 1.85286 1.10297 2.30294C0.652881 2.75303 0.400024 3.36348 0.400024 4C0.400024 4.63652 0.652881 5.24697 1.10297 5.69706C1.55306 6.14714 2.1635 6.4 2.80002 6.4C3.43654 6.4 4.04699 6.14714 4.49708 5.69706C4.94717 5.24697 5.20002 4.63652 5.20002 4C5.20002 3.36348 4.94717 2.75303 4.49708 2.30294C4.04699 1.85286 3.43654 1.6 2.80002 1.6ZM2.80002 5.2C2.48176 5.2 2.17654 5.07357 1.9515 4.84853C1.72645 4.62349 1.60002 4.31826 1.60002 4C1.60002 3.68174 1.72645 3.37652 1.9515 3.15147C2.17654 2.92643 2.48176 2.8 2.80002 2.8C3.11828 2.8 3.42351 2.92643 3.64855 3.15147C3.8736 3.37652 4.00002 3.68174 4.00002 4C4.00002 4.31826 3.8736 4.62349 3.64855 4.84853C3.42351 5.07357 3.11828 5.2 2.80002 5.2ZM8.20002 0.400001C7.40438 0.400001 6.64131 0.716071 6.0787 1.27868C5.5161 1.84129 5.20002 2.60435 5.20002 3.4C5.20002 4.19565 5.5161 4.95871 6.0787 5.52132C6.64131 6.08393 7.40438 6.4 8.20002 6.4C8.99567 6.4 9.75874 6.08393 10.3213 5.52132C10.884 4.95871 11.2 4.19565 11.2 3.4C11.2 2.60435 10.884 1.84129 10.3213 1.27868C9.75874 0.716071 8.99567 0.400001 8.20002 0.400001ZM8.20002 5.2C7.72263 5.2 7.2648 5.01036 6.92723 4.67279C6.58967 4.33523 6.40002 3.87739 6.40002 3.4C6.40002 2.92261 6.58967 2.46477 6.92723 2.12721C7.2648 1.78964 7.72263 1.6 8.20002 1.6C8.67741 1.6 9.13525 1.78964 9.47282 2.12721C9.81038 2.46477 10 2.92261 10 3.4C10 3.87739 9.81038 4.33523 9.47282 4.67279C9.13525 5.01036 8.67741 5.2 8.20002 5.2Z" fill="#027A48"/>
</svg>
