<svg width="18" height="16" viewBox="0 0 18 16" fill="none" xmlns="http://www.w3.org/2000/svg">
<path d="M3 10.25H4.5C4.89783 10.25 5.27936 10.408 5.56066 10.6893C5.84197 10.9706 6 11.3522 6 11.75V13.25H6.75V11.75C6.75 11.3522 6.90804 10.9706 7.18934 10.6893C7.47065 10.408 7.85218 10.25 8.25 10.25H9.75C10.1478 10.25 10.5294 10.408 10.8107 10.6893C11.092 10.9706 11.25 11.3522 11.25 11.75V13.25H12V11.75C12 11.3522 12.158 10.9706 12.4393 10.6893C12.7206 10.408 13.1022 10.25 13.5 10.25H15C15.3978 10.25 15.7794 10.408 16.0607 10.6893C16.342 10.9706 16.5 11.3522 16.5 11.75V13.25H17.25V15.5H0.75V13.25H1.5V11.75C1.5 11.3522 1.65804 10.9706 1.93934 10.6893C2.22064 10.408 2.60218 10.25 3 10.25ZM8.25 4.25L11.25 6.5L8.25 8.75V4.25ZM3 0.5H15C15.3978 0.5 15.7794 0.658035 16.0607 0.93934C16.342 1.22064 16.5 1.60218 16.5 2V9.155C16.0457 8.88724 15.5274 8.74731 15 8.75V2H3V8.75C2.4525 8.75 1.9425 8.8925 1.5 9.155V2C1.5 1.60218 1.65804 1.22064 1.93934 0.93934C2.22064 0.658035 2.60218 0.5 3 0.5Z" fill="#027A48"/>
</svg>
