<svg width="18" height="18" viewBox="0 0 18 18" fill="none" xmlns="http://www.w3.org/2000/svg">
<path d="M3 11.25H4.5C4.89783 11.25 5.27936 11.408 5.56066 11.6893C5.84197 11.9706 6 12.3522 6 12.75V14.25H6.75V12.75C6.75 12.3522 6.90804 11.9706 7.18934 11.6893C7.47065 11.408 7.85218 11.25 8.25 11.25H9.75C10.1478 11.25 10.5294 11.408 10.8107 11.6893C11.092 11.9706 11.25 12.3522 11.25 12.75V14.25H12V12.75C12 12.3522 12.158 11.9706 12.4393 11.6893C12.7206 11.408 13.1022 11.25 13.5 11.25H15C15.3978 11.25 15.7794 11.408 16.0607 11.6893C16.342 11.9706 16.5 12.3522 16.5 12.75V14.25H17.25V16.5H0.75V14.25H1.5V12.75C1.5 12.3522 1.65804 11.9706 1.93934 11.6893C2.22064 11.408 2.60218 11.25 3 11.25ZM8.25 5.25L11.25 7.5L8.25 9.75V5.25ZM3 1.5H15C15.3978 1.5 15.7794 1.65804 16.0607 1.93934C16.342 2.22064 16.5 2.60218 16.5 3V10.155C16.0457 9.88724 15.5274 9.74731 15 9.75V3H3V9.75C2.4525 9.75 1.9425 9.8925 1.5 10.155V3C1.5 2.60218 1.65804 2.22064 1.93934 1.93934C2.22064 1.65804 2.60218 1.5 3 1.5Z" fill="#A5A5A5"/>
</svg>
