<svg width="78" height="36" viewBox="0 0 78 36" fill="none" xmlns="http://www.w3.org/2000/svg">
<path d="M28.9718 11.6121L28.9656 15.5074C28.9656 15.725 28.8512 15.9267 28.6642 16.0384C28.4771 16.1501 28.2453 16.1551 28.0536 16.0515L27.1168 15.5476L26.4985 15.2137V11.9552L28.0443 11.0741C28.2364 10.9651 28.4713 10.9663 28.6622 11.0772C28.8531 11.1877 28.971 11.3914 28.9718 11.6121Z" fill="#333333"/>
<path fill-rule="evenodd" clip-rule="evenodd" d="M10.7844 10.9031C11.1994 10.488 11.7623 10.2549 12.3492 10.2549H14.5623C15.1492 10.2549 15.7121 10.488 16.1271 10.9031C16.5421 11.3181 16.7753 11.881 16.7753 12.4679V14.6809C16.7753 15.2678 16.5421 15.8307 16.1271 16.2457C15.7121 16.6608 15.1492 16.8939 14.5623 16.8939H12.3492C11.7623 16.8939 11.1994 16.6608 10.7844 16.2457C10.3694 15.8307 10.1362 15.2678 10.1362 14.6809V12.4679C10.1362 11.881 10.3694 11.3181 10.7844 10.9031ZM10.7844 19.7551C11.1994 19.3401 11.7623 19.1069 12.3492 19.1069H14.5623C15.1492 19.1069 15.7121 19.3401 16.1271 19.7551C16.5421 20.1701 16.7753 20.733 16.7753 21.32V23.533C16.7753 24.1199 16.5421 24.6828 16.1271 25.0978C15.7121 25.5128 15.1492 25.746 14.5623 25.746H12.3492C11.7623 25.746 11.1994 25.5128 10.7844 25.0978C10.3694 24.6828 10.1362 24.1199 10.1362 23.533V21.32C10.1362 20.733 10.3694 20.1701 10.7844 19.7551ZM19.6365 10.9031C19.2214 11.3181 18.9883 11.881 18.9883 12.4679V14.6809C18.9883 15.2678 19.2214 15.8307 19.6365 16.2457C20.0515 16.6608 20.6144 16.8939 21.2013 16.8939H23.4143C24.0012 16.8939 24.5641 16.6608 24.9791 16.2457C25.3942 15.8307 25.6273 15.2678 25.6273 14.6809V12.4679C25.6273 11.881 25.3942 11.3181 24.9791 10.9031C24.5641 10.488 24.0012 10.2549 23.4143 10.2549H21.2013C20.6144 10.2549 20.0515 10.488 19.6365 10.9031ZM20.731 11.3063C20.4738 11.3063 20.2654 11.5147 20.2654 11.7718C20.2654 12.029 20.4738 12.2374 20.731 12.2374H23.7974C24.0545 12.2374 24.2629 12.029 24.2629 11.7718C24.2629 11.5147 24.0545 11.3063 23.7974 11.3063H20.731Z" fill="#333333"/>
<path d="M22.6052 19.2031V25.4012C22.6052 25.5895 22.4491 25.7456 22.2608 25.7456C22.0726 25.7456 21.9165 25.5895 21.9165 25.4012V19.2031H22.6052Z" fill="#333333"/>
<path d="M21.0538 19.2038L19.378 25.4891C19.3413 25.6452 19.1989 25.7462 19.0474 25.7462C19.0199 25.7462 18.9877 25.7416 18.9602 25.7324C18.7765 25.6865 18.6664 25.4983 18.7168 25.3147L20.3467 19.1992C20.3742 19.2038 20.3972 19.2038 20.4247 19.2038L21.0538 19.2038Z" fill="#333333"/>
<path d="M25.5628 25.7325C25.5353 25.7416 25.5031 25.7463 25.4756 25.7463C25.3241 25.7463 25.1817 25.6452 25.145 25.4891L23.4692 19.2038H24.0982C24.1257 19.2038 24.1487 19.2038 24.1763 19.1992L25.8061 25.3147C25.8566 25.4983 25.7464 25.6866 25.5628 25.7325Z" fill="#333333"/>
<path d="M37.5068 16.4447C37.3586 16.4447 37.2753 16.3892 37.1919 16.2873L33.3202 11.0911V14.9998C33.3202 15.6574 33.4407 15.9446 33.7648 16.0743C33.8389 16.102 33.876 16.1391 33.876 16.241C33.876 16.3336 33.8112 16.3984 33.7278 16.3984H32.4866C32.4033 16.3984 32.3477 16.3336 32.3477 16.241C32.3477 16.1391 32.3847 16.102 32.4588 16.0743C32.783 15.9446 32.9034 15.6574 32.9034 14.9998V11.0911C32.9034 10.5076 32.783 10.3686 32.4588 10.239C32.3847 10.2112 32.3477 10.1649 32.3477 10.0722C32.3477 9.97034 32.4033 9.91477 32.4866 9.91477H33.8667C33.9594 9.91477 34.0427 9.95182 34.0983 10.0259L37.3586 14.4719V11.3134C37.3586 10.6465 37.2382 10.3594 36.914 10.239C36.84 10.2112 36.8029 10.1649 36.8029 10.0722C36.8029 9.97034 36.8677 9.91477 36.9511 9.91477H38.1923C38.2756 9.91477 38.3405 9.97034 38.3405 10.0722C38.3405 10.1649 38.2941 10.2112 38.2293 10.239C37.9051 10.3594 37.7847 10.6465 37.7847 11.3134V16.1576C37.7847 16.3243 37.6828 16.4447 37.5068 16.4447ZM40.9119 16.4447C39.4577 16.4447 38.4851 15.4722 38.4851 13.9995C38.4851 12.5268 39.4577 11.5449 40.9119 11.5449C42.3568 11.5449 43.3386 12.5268 43.3386 13.9995C43.3386 15.4722 42.3568 16.4447 40.9119 16.4447ZM40.9119 16.0372C41.7269 16.0372 42.0326 15.0924 42.0326 13.9995C42.0326 12.8973 41.7269 11.9618 40.9119 11.9618C40.0968 11.9618 39.7911 12.8973 39.7911 13.9995C39.7911 15.0924 40.0968 16.0372 40.9119 16.0372ZM43.7549 16.3984C43.6715 16.3984 43.616 16.3336 43.616 16.241C43.616 16.1391 43.653 16.102 43.7271 16.0743C44.0513 15.9353 44.0883 15.7223 44.0883 15.1388V10.8317C44.0883 10.4798 44.042 10.3501 43.7549 10.2945C43.6623 10.276 43.616 10.2204 43.616 10.1278C43.616 10.0352 43.6715 9.96108 43.7734 9.9333C43.8568 9.91477 44.57 9.73878 44.9961 9.64616C45.1535 9.60911 45.3017 9.72952 45.3017 9.89625V15.1388C45.3017 15.7223 45.3295 15.9353 45.6629 16.0743C45.7278 16.102 45.7741 16.1391 45.7741 16.241C45.7741 16.3336 45.7093 16.3984 45.6259 16.3984H43.7549ZM46.2876 16.3984C46.2042 16.3984 46.1486 16.3336 46.1486 16.241C46.1486 16.1391 46.1857 16.102 46.2598 16.0743C46.584 15.9353 46.621 15.7223 46.621 15.1388V10.8317C46.621 10.4798 46.5747 10.3501 46.2876 10.2945C46.195 10.276 46.1486 10.2204 46.1486 10.1278C46.1486 10.0352 46.2042 9.96108 46.3061 9.9333C46.3895 9.91477 47.1027 9.73878 47.5287 9.64616C47.6862 9.60911 47.8344 9.72952 47.8344 9.89625V15.1388C47.8344 15.7223 47.8622 15.9353 48.1956 16.0743C48.2605 16.102 48.3068 16.1391 48.3068 16.241C48.3068 16.3336 48.2419 16.3984 48.1586 16.3984H46.2876ZM49.2026 18.3528C48.7765 18.3528 48.5264 18.1305 48.5264 17.8341C48.5264 17.5562 48.7024 17.3525 49.0266 17.3525C49.4063 17.3525 49.6286 17.5099 49.8972 17.5099C50.2585 17.5099 50.5271 17.0468 50.8049 16.3707L49.2303 12.8046C48.9432 12.1563 48.8321 12.0451 48.5171 11.9247C48.4523 11.8969 48.406 11.8506 48.406 11.7487C48.406 11.6561 48.4708 11.5913 48.5542 11.5913H50.7679C50.8513 11.5913 50.9161 11.6561 50.9161 11.7487C50.9161 11.8506 50.8698 11.8969 50.8049 11.9247C50.4715 12.0544 50.277 12.1563 50.5456 12.8232L51.407 14.9257L52.1943 12.9343C52.4536 12.2674 52.3425 12.0544 52.0183 11.9247C51.9442 11.8969 51.9072 11.8506 51.9072 11.7487C51.9072 11.6561 51.9627 11.5913 52.0461 11.5913H53.3614C53.4447 11.5913 53.5096 11.6561 53.5096 11.7487C53.5096 11.8506 53.4632 11.8969 53.3984 11.9247C53.0835 12.0544 52.9353 12.2674 52.6759 12.9065C52.3425 13.7494 51.8886 14.8516 51.6108 15.5741C51.0087 17.1209 50.5549 18.3528 49.2026 18.3528ZM56.2192 16.4447C56.0988 16.4447 56.034 16.3799 55.9969 16.2966L54.4223 12.8046C54.1352 12.1655 54.0148 12.0451 53.7091 11.9247C53.635 11.8969 53.598 11.8506 53.598 11.7487C53.598 11.6561 53.6536 11.5913 53.7462 11.5913H55.8302C55.9136 11.5913 55.9784 11.6561 55.9784 11.7487C55.9784 11.8506 55.9414 11.8969 55.8673 11.9247C55.5431 12.0544 55.4968 12.1655 55.7654 12.8324L56.5712 14.8424L57.3215 12.7954C57.0621 12.1655 56.988 12.0451 56.6916 11.9247C56.6175 11.8969 56.5805 11.8506 56.5805 11.7487C56.5805 11.6561 56.6453 11.5913 56.7287 11.5913H58.7757C58.859 11.5913 58.9146 11.6561 58.9146 11.7487C58.9146 11.8506 58.8775 11.8969 58.8034 11.9247C58.4793 12.0544 58.3774 12.1748 58.6182 12.8232L59.3407 14.8424L60.0724 12.9343C60.3317 12.2674 60.2299 12.0544 59.9057 11.9247C59.8316 11.8969 59.7853 11.8506 59.7853 11.7487C59.7853 11.6561 59.8501 11.5913 59.9335 11.5913H61.2487C61.3321 11.5913 61.3969 11.6561 61.3969 11.7487C61.3969 11.8506 61.3506 11.8969 61.2858 11.9247C60.9708 12.0544 60.8041 12.2674 60.554 12.9065C60.0353 14.2218 59.2388 16.2225 59.2017 16.2873C59.1462 16.3984 59.0906 16.4447 58.9702 16.4447C58.8498 16.4447 58.7849 16.3799 58.7386 16.2966L57.553 13.3604L56.4601 16.2873C56.4045 16.3984 56.3397 16.4447 56.2192 16.4447ZM63.5432 16.4447C62.089 16.4447 61.1164 15.4722 61.1164 13.9995C61.1164 12.5268 62.089 11.5449 63.5432 11.5449C64.9881 11.5449 65.9699 12.5268 65.9699 13.9995C65.9699 15.4722 64.9881 16.4447 63.5432 16.4447ZM63.5432 16.0372C64.3583 16.0372 64.6639 15.0924 64.6639 13.9995C64.6639 12.8973 64.3583 11.9618 63.5432 11.9618C62.7281 11.9618 62.4224 12.8973 62.4224 13.9995C62.4224 15.0924 62.7281 16.0372 63.5432 16.0372ZM68.7623 16.4447C67.3081 16.4447 66.3356 15.4722 66.3356 13.9995C66.3356 12.5268 67.3081 11.5449 68.7623 11.5449C70.2072 11.5449 71.1891 12.5268 71.1891 13.9995C71.1891 15.4722 70.2072 16.4447 68.7623 16.4447ZM68.7623 16.0372C69.5774 16.0372 69.8831 15.0924 69.8831 13.9995C69.8831 12.8973 69.5774 11.9618 68.7623 11.9618C67.9472 11.9618 67.6416 12.8973 67.6416 13.9995C67.6416 15.0924 67.9472 16.0372 68.7623 16.0372ZM73.6851 16.4447C72.3976 16.4447 71.5547 15.5278 71.5547 14.2496C71.5547 12.8139 72.3883 11.5449 73.8796 11.5449C74.3427 11.5449 74.778 11.6931 75.1207 11.8691V10.8317C75.1207 10.4798 75.0744 10.3501 74.7873 10.2945C74.6854 10.276 74.6483 10.2204 74.6483 10.1278C74.6483 10.0352 74.7039 9.96108 74.8058 9.9333C74.8799 9.91477 75.5931 9.73878 76.0284 9.64616C76.1859 9.60911 76.3341 9.72952 76.3341 9.89625V15.2777C76.3341 15.6389 76.3711 15.7408 76.6675 15.7871C76.7602 15.8056 76.7972 15.8705 76.7972 15.9631C76.7972 16.0557 76.7416 16.1206 76.649 16.1484C76.5657 16.1669 75.8525 16.3429 75.4264 16.4355C75.2597 16.4725 75.1207 16.3521 75.1207 16.1854V15.7501C74.8614 16.1576 74.3797 16.4447 73.6851 16.4447ZM73.9722 15.8612C74.7132 15.8612 75.1207 15.1202 75.1207 14.37V13.24C75.1207 12.7305 74.7132 11.9247 73.9814 11.9247C73.1571 11.9247 72.8237 12.8973 72.8237 13.9254C72.8237 15.111 73.2682 15.8612 73.9722 15.8612ZM32.4866 25.3984C32.4033 25.3984 32.3477 25.3336 32.3477 25.241C32.3477 25.1391 32.3847 25.102 32.4588 25.0743C32.783 24.9353 32.8201 24.7223 32.8201 24.1388V20.1745C32.8201 19.5909 32.783 19.3686 32.4588 19.239C32.3847 19.2112 32.3477 19.1649 32.3477 19.0722C32.3477 18.9703 32.4033 18.9148 32.4866 18.9148H36.4046C36.5713 18.9148 36.6547 18.9889 36.6825 19.1185C36.7103 19.2667 36.914 20.6283 36.9233 20.7765C36.9418 20.8877 36.8677 20.9895 36.7381 20.9895C36.6269 20.9895 36.5528 20.9247 36.5065 20.8321C36.2008 20.1189 35.9322 19.3316 35.219 19.3316H34.6448C34.2743 19.3316 34.0705 19.3872 34.0705 20.0448V21.9158H34.478C35.1449 21.9158 35.1635 21.7305 35.3302 21.0266C35.3487 20.9432 35.3765 20.8784 35.4784 20.8784C35.5895 20.8784 35.6266 20.9432 35.6266 21.0266V23.231C35.6266 23.3144 35.5895 23.3792 35.4784 23.3792C35.3765 23.3792 35.3487 23.3144 35.3302 23.231C35.1635 22.5271 35.1449 22.3419 34.478 22.3419H34.0705V24.1665C34.0705 24.8334 34.2557 24.9353 34.5985 25.0743C34.6726 25.0928 34.7189 25.1391 34.7189 25.241C34.7189 25.3336 34.654 25.3984 34.5707 25.3984H32.4866ZM37.351 25.3984C37.2677 25.3984 37.2028 25.3336 37.2028 25.241C37.2028 25.1391 37.2399 25.102 37.314 25.0743C37.6382 24.9353 37.6752 24.7223 37.6752 24.1388V21.7398C37.6752 21.3786 37.6382 21.2489 37.3418 21.1933C37.2492 21.1841 37.2028 21.1192 37.2028 21.0266C37.2028 20.934 37.2584 20.8691 37.3603 20.8413C37.4437 20.8228 38.1569 20.6468 38.5829 20.5542C38.7404 20.5172 38.8886 20.6376 38.8886 20.8043V24.1388C38.8886 24.7223 38.9257 24.9353 39.2498 25.0743C39.3147 25.102 39.361 25.1391 39.361 25.241C39.361 25.3336 39.2961 25.3984 39.2128 25.3984H37.351ZM38.2588 19.9799C37.8234 20.017 37.4437 19.7576 37.4066 19.4057C37.3788 19.0444 37.703 18.7203 38.1291 18.6832C38.5644 18.6369 38.9442 18.8962 38.9812 19.2482C39.0183 19.6094 38.6941 19.9336 38.2588 19.9799ZM39.8745 25.3984C39.7911 25.3984 39.7355 25.3336 39.7355 25.241C39.7355 25.1391 39.7726 25.102 39.8467 25.0743C40.1709 24.9353 40.2079 24.7223 40.2079 24.1388V19.8317C40.2079 19.4798 40.1616 19.3501 39.8745 19.2945C39.7818 19.276 39.7355 19.2204 39.7355 19.1278C39.7355 19.0352 39.7911 18.9611 39.893 18.9333C39.9764 18.9148 40.6896 18.7388 41.1156 18.6462C41.2731 18.6091 41.4213 18.7295 41.4213 18.8962V24.1388C41.4213 24.7223 41.4491 24.9353 41.7825 25.0743C41.8474 25.102 41.8937 25.1391 41.8937 25.241C41.8937 25.3336 41.8288 25.3984 41.7455 25.3984H39.8745ZM42.4071 25.3984C42.3238 25.3984 42.2682 25.3336 42.2682 25.241C42.2682 25.1391 42.3053 25.102 42.3794 25.0743C42.7035 24.9353 42.7406 24.7223 42.7406 24.1388V21.7398C42.7406 21.3786 42.6943 21.2489 42.4071 21.1933C42.3145 21.1841 42.2682 21.1192 42.2682 21.0266C42.2682 20.934 42.3238 20.8691 42.4257 20.8413C42.509 20.8228 43.2222 20.6468 43.6483 20.5542C43.8058 20.5172 43.954 20.6376 43.954 20.8043V21.4527C44.2504 20.934 44.8154 20.5449 45.4452 20.5449C46.2325 20.5449 46.6586 20.971 46.8346 21.5453C47.1124 20.9618 47.7423 20.5449 48.4277 20.5449C49.5021 20.5449 49.9189 21.3415 49.9189 22.24V24.1388C49.9189 24.7223 49.956 24.9353 50.2802 25.0743C50.345 25.102 50.3913 25.1391 50.3913 25.241C50.3913 25.3336 50.3265 25.3984 50.2431 25.3984H48.3814C48.298 25.3984 48.2332 25.3336 48.2332 25.241C48.2332 25.1391 48.2702 25.102 48.3443 25.0743C48.6685 24.9353 48.7056 24.7223 48.7056 24.1388V22.3974C48.7056 21.7954 48.474 21.3693 47.9275 21.3693C47.3718 21.3693 46.9365 21.8417 46.9365 22.4345V24.1388C46.9365 24.7223 46.9642 24.9353 47.2977 25.0743C47.3625 25.102 47.4088 25.1391 47.4088 25.241C47.4088 25.3336 47.344 25.3984 47.2606 25.3984H45.3989C45.3063 25.3984 45.2507 25.3336 45.2507 25.241C45.2507 25.1391 45.2878 25.102 45.3618 25.0743C45.686 24.9353 45.7231 24.7223 45.7231 24.1388V22.3974C45.7231 21.7954 45.4915 21.3693 44.945 21.3693C44.3893 21.3693 43.954 21.8417 43.954 22.4345V24.1388C43.954 24.7223 43.9818 24.9353 44.3152 25.0743C44.38 25.102 44.4263 25.1391 44.4263 25.241C44.4263 25.3336 44.3615 25.3984 44.2782 25.3984H42.4071ZM50.9007 25.3984C50.8173 25.3984 50.7617 25.3336 50.7617 25.241C50.7617 25.1391 50.7988 25.102 50.8729 25.0743C51.1971 24.9353 51.2341 24.7223 51.2341 24.1388V21.7398C51.2341 21.3786 51.1878 21.2489 50.9007 21.1933C50.8081 21.1841 50.7617 21.1192 50.7617 21.0266C50.7617 20.934 50.8173 20.8691 50.9192 20.8413C51.0026 20.8228 51.7158 20.6468 52.1418 20.5542C52.2993 20.5172 52.4475 20.6376 52.4475 20.8043V21.4527C52.7439 20.934 53.3089 20.5449 53.9387 20.5449C54.726 20.5449 55.1521 20.971 55.3281 21.5453C55.606 20.9618 56.2358 20.5449 56.9212 20.5449C57.9957 20.5449 58.4125 21.3415 58.4125 22.24V24.1388C58.4125 24.7223 58.4495 24.9353 58.7737 25.0743C58.8385 25.102 58.8849 25.1391 58.8849 25.241C58.8849 25.3336 58.82 25.3984 58.7367 25.3984H56.8749C56.7916 25.3984 56.7267 25.3336 56.7267 25.241C56.7267 25.1391 56.7638 25.102 56.8379 25.0743C57.162 24.9353 57.1991 24.7223 57.1991 24.1388V22.3974C57.1991 21.7954 56.9675 21.3693 56.4211 21.3693C55.8653 21.3693 55.43 21.8417 55.43 22.4345V24.1388C55.43 24.7223 55.4578 24.9353 55.7912 25.0743C55.8561 25.102 55.9024 25.1391 55.9024 25.241C55.9024 25.3336 55.8375 25.3984 55.7542 25.3984H53.8924C53.7998 25.3984 53.7442 25.3336 53.7442 25.241C53.7442 25.1391 53.7813 25.102 53.8554 25.0743C54.1796 24.9353 54.2166 24.7223 54.2166 24.1388V22.3974C54.2166 21.7954 53.9851 21.3693 53.4386 21.3693C52.8828 21.3693 52.4475 21.8417 52.4475 22.4345V24.1388C52.4475 24.7223 52.4753 24.9353 52.8087 25.0743C52.8736 25.102 52.9199 25.1391 52.9199 25.241C52.9199 25.3336 52.855 25.3984 52.7717 25.3984H50.9007ZM60.5335 25.4447C59.8295 25.4447 59.209 24.9075 59.209 24.1017C59.209 23.0458 60.3112 22.7679 61.2745 22.5178L61.8673 22.3789V22.0918C61.8673 21.4619 61.7839 20.9432 61.3671 20.9432C60.6539 20.9432 60.5891 21.9528 59.9685 21.9991C59.6072 22.0269 59.4035 21.7954 59.4405 21.4527C59.4961 20.8877 60.5983 20.5449 61.4319 20.5449C62.5805 20.5449 63.0806 21.1655 63.0806 22.1937V24.1943C63.0806 24.5185 63.1177 24.6852 63.3956 24.5833C63.4882 24.5556 63.553 24.5648 63.5993 24.6389C63.6549 24.7315 63.5901 24.852 63.516 24.9538C63.4511 25.0372 63.0065 25.417 62.5619 25.417C62.21 25.417 62.0247 25.2039 61.9506 24.8149C61.6357 25.2132 61.1633 25.4447 60.5335 25.4447ZM61.0522 24.8149C61.3949 24.8149 61.6728 24.5926 61.7932 24.2592C61.821 24.1943 61.8673 24.0369 61.8673 23.8887V22.7957C61.7098 22.8235 61.3115 22.9254 61.0151 23.0921C60.6632 23.2866 60.4316 23.583 60.4316 23.9906C60.4316 24.5185 60.6909 24.8149 61.0522 24.8149ZM63.9985 25.3984C63.9059 25.3984 63.8503 25.3336 63.8503 25.241C63.8503 25.1391 63.8873 25.102 63.9614 25.0743C64.2856 24.9353 64.3227 24.7223 64.3227 24.1388V19.804C64.3227 19.452 64.2856 19.3501 63.9892 19.2945C63.8966 19.276 63.8503 19.2204 63.8503 19.1278C63.8503 19.0352 63.9059 18.9611 64.0077 18.9333C64.0911 18.9148 64.8043 18.7388 65.2304 18.6462C65.3878 18.6091 65.536 18.7295 65.536 18.8962V22.8235L66.8513 21.6101C67.194 21.2859 67.1014 20.9895 66.8142 20.9247C66.7401 20.9062 66.7031 20.8413 66.7031 20.7487C66.7031 20.6561 66.7679 20.5913 66.8513 20.5913H68.5371C68.6204 20.5913 68.6852 20.6561 68.6852 20.7487C68.6852 20.8506 68.6389 20.8969 68.5741 20.9247C68.2499 21.0173 67.7775 21.2952 67.2403 21.7954L66.7865 22.2307L68.0739 24.1943C68.5185 24.8705 68.7501 24.9724 69.0928 25.0743C69.1669 25.0928 69.2039 25.1484 69.2039 25.241C69.2039 25.3336 69.1391 25.3984 69.0557 25.3984H67.5738C67.4811 25.3984 67.407 25.3521 67.3607 25.278L65.888 23.0643L65.536 23.407V24.1388C65.536 24.7223 65.5638 24.9353 65.8973 25.0743C65.9621 25.102 66.0084 25.1391 66.0084 25.241C66.0084 25.3336 65.9436 25.3984 65.8602 25.3984H63.9985ZM71.2935 25.4447C69.7744 25.4447 68.9316 24.4907 68.9316 23.1106C68.9316 21.6564 69.9875 20.5449 71.3027 20.5449C72.655 20.5449 73.2015 21.5175 73.2015 22.3696C73.2015 22.5178 73.0904 22.629 72.9514 22.629H70.1172C70.0986 23.8331 70.7099 24.6111 71.6084 24.6111C72.229 24.6111 72.6365 24.3147 72.9237 23.8979C72.9607 23.8424 73.0441 23.7868 73.1367 23.8238C73.2201 23.8609 73.2293 23.9442 73.2108 24.0369C73.0904 24.5648 72.5809 25.4447 71.2935 25.4447ZM72.0345 22.2029C72.0808 21.6286 71.9048 20.9525 71.2194 20.9525C70.534 20.9525 70.2283 21.5082 70.1357 22.2029H72.0345ZM73.7403 25.3984C73.6569 25.3984 73.5921 25.3336 73.5921 25.241C73.5921 25.1391 73.6384 25.102 73.7032 25.0743C74.0367 24.9353 74.0644 24.7223 74.0644 24.1388V21.7398C74.0644 21.3786 74.0274 21.2489 73.731 21.2026C73.6384 21.1841 73.6013 21.1192 73.6013 21.0266C73.6013 20.934 73.6569 20.8691 73.7495 20.8413C73.8329 20.8228 74.5461 20.6468 74.9722 20.5542C75.1296 20.5172 75.2778 20.6376 75.2778 20.8043V21.5453C75.5094 21.0173 75.9262 20.5449 76.4171 20.5449C76.7783 20.5449 76.9173 20.8043 76.9173 21.1007C76.9173 21.4341 76.7783 21.7491 76.3059 21.7491C75.565 21.7491 75.2778 21.9528 75.2778 22.6753V24.1665C75.2778 24.8334 75.4631 24.9353 75.815 25.0743C75.8891 25.0928 75.9262 25.1391 75.9262 25.241C75.9262 25.3336 75.8613 25.3984 75.778 25.3984H73.7403Z" fill="#333333"/>
</svg>
