<svg width="26" height="28" viewBox="0 0 26 28" fill="none" xmlns="http://www.w3.org/2000/svg">
<path d="M24.6635 0.769531H1.62918C1.17569 0.769531 0.806641 1.13858 0.806641 1.59207V12.1884C1.02373 12.1293 1.23478 12.028 1.43742 11.8724C1.51822 11.8097 1.59782 11.7518 1.67501 11.6939V10.7653C1.67501 10.6205 1.792 10.5047 1.93552 10.5047H4.06058C4.08712 10.5035 4.11244 10.5035 4.13777 10.5047H8.48436C8.62788 10.5047 8.74486 10.6205 8.74486 10.7653V17.3142C8.74486 17.4577 8.62788 17.5747 8.48436 17.5747H3.96178L4.44421 18.5805H8.48451C8.62803 18.5805 8.74502 18.6963 8.74502 18.841V25.3899C8.74502 25.5334 8.62803 25.6504 8.48451 25.6504H7.57515C7.60289 26.1931 7.47987 26.7395 7.21212 27.24C7.188 27.2858 7.16267 27.3292 7.13493 27.3727L24.6636 27.3715C25.1171 27.3715 25.4862 27.0012 25.4862 26.5477V1.59328C25.4862 1.13858 25.117 0.769531 24.6635 0.769531ZM16.6817 25.3899C16.6817 25.5334 16.5647 25.6504 16.4212 25.6504H9.87104C9.72752 25.6504 9.61053 25.5334 9.61053 25.3899L9.61174 18.841C9.61174 18.6963 9.72872 18.5805 9.87224 18.5805H16.4224C16.5659 18.5805 16.6829 18.6963 16.6829 18.841L16.6817 25.3899ZM16.6817 17.3142C16.6817 17.4589 16.5647 17.5747 16.4212 17.5747H9.87104C9.72752 17.5747 9.61053 17.4589 9.61053 17.3142L9.61174 10.7653C9.61174 10.6218 9.72872 10.5048 9.87224 10.5048H16.4224C16.5659 10.5048 16.6829 10.6218 16.6829 10.7653L16.6817 17.3142ZM24.6175 25.3899C24.6175 25.5334 24.5005 25.6504 24.357 25.6504H17.8081C17.6634 25.6504 17.5476 25.5334 17.5476 25.3899L17.5488 10.7653C17.5488 10.6218 17.6646 10.5048 17.8093 10.5048H24.3582C24.5017 10.5048 24.6187 10.6218 24.6187 10.7653L24.6175 25.3899ZM24.6175 8.06839C24.6175 8.21191 24.5005 8.32889 24.357 8.32889H1.93523C1.79171 8.32889 1.67472 8.21191 1.67472 8.06839V2.75078C1.67472 2.60605 1.79171 2.49027 1.93523 2.49027H24.3582C24.5017 2.49027 24.6187 2.60605 24.6187 2.75078L24.6175 8.06839Z" fill="white"/>
</svg>
