<svg width="34" height="35" viewBox="0 0 34 35" fill="none" xmlns="http://www.w3.org/2000/svg">
<path d="M17.0001 0.381836C26.3661 0.381836 33.9605 7.97624 33.9605 17.3423C33.9605 26.7083 26.3661 34.3027 17.0001 34.3027H2.47949C1.67692 34.3027 1.02574 33.6516 1.02574 32.849C1.02574 32.6067 1.08631 32.3701 1.20178 32.1562L3.5963 27.7362C1.36644 24.8647 0.0395508 21.2588 0.0395508 17.3424C0.0395508 7.97634 7.63402 0.381836 17.0001 0.381836ZM23.9868 20.4218C23.2808 20.0432 22.3987 20.3082 22.0182 21.0162C21.1626 22.6082 19.4268 23.6417 17.4828 23.6417C15.5425 23.6417 13.8067 22.6101 12.9492 21.0181C12.5687 20.3102 11.6885 20.047 10.9806 20.4275C10.2746 20.808 10.0095 21.6882 10.39 22.3961C11.7529 24.9307 14.4749 26.5491 17.4829 26.5491C20.4944 26.5491 23.2165 24.9288 24.581 22.3904C24.9596 21.6844 24.6948 20.8023 23.9868 20.4218Z" fill="white"/>
</svg>
