<svg width="25" height="25" viewBox="0 0 25 25" fill="none" xmlns="http://www.w3.org/2000/svg">
<path d="M12.7285 0.270508C19.3553 0.270508 24.7285 5.64376 24.7285 12.2705C24.7285 18.8972 19.3553 24.2705 12.7285 24.2705H2.45484C1.887 24.2705 1.42627 23.8097 1.42627 23.2419C1.42627 23.0705 1.46913 22.9031 1.55082 22.7517L3.24501 19.6245C1.66733 17.5928 0.728516 15.0415 0.728516 12.2706C0.728516 5.64382 6.10181 0.270508 12.7285 0.270508ZM17.6718 14.4493C17.1723 14.1815 16.5482 14.369 16.279 14.8699C15.6736 15.9962 14.4455 16.7275 13.0701 16.7275C11.6973 16.7275 10.4692 15.9976 9.86246 14.8712C9.59326 14.3703 8.97048 14.1842 8.46961 14.4534C7.97006 14.7225 7.78256 15.3453 8.05173 15.8462C9.01602 17.6395 10.9419 18.7846 13.0701 18.7846C15.2009 18.7846 17.1268 17.6381 18.0923 15.8422C18.3601 15.3427 18.1727 14.7186 17.6718 14.4493Z" fill="#195390"/>
</svg>
