<svg width="35" height="27" viewBox="0 0 35 27" fill="none" xmlns="http://www.w3.org/2000/svg">
<path fill-rule="evenodd" clip-rule="evenodd" d="M34.0041 4.95279V20.7972H13.2198V19.2637L17.2471 14.5997C17.6262 14.1815 17.832 13.6347 17.8225 13.0704C17.813 12.5061 17.589 11.9665 17.196 11.5613C16.7852 11.1519 16.2288 10.922 15.6488 10.922C15.0688 10.922 14.5124 11.1519 14.1016 11.5613L13.2198 12.4436V4.95279H18.3505C17.8543 5.67283 17.5111 6.48694 17.3418 7.34484C17.1726 8.20275 17.1811 9.08624 17.3667 9.94074C17.5523 10.7953 17.9112 11.6026 18.421 12.313C18.9309 13.0234 19.581 13.6218 20.3312 14.0711C20.215 14.2617 20.1538 14.4808 20.1544 14.7041V16.0011C20.1554 16.297 20.264 16.5825 20.4598 16.8044C20.6556 17.0264 20.9253 17.1696 21.2189 17.2076C21.4192 17.6773 21.7532 18.0778 22.1793 18.3593C22.6054 18.6408 23.1049 18.7909 23.6155 18.7909C24.1262 18.7909 24.6257 18.6408 25.0518 18.3593C25.4779 18.0778 25.8119 17.6773 26.0122 17.2076C26.3061 17.1695 26.576 17.0259 26.7718 16.8035C26.9675 16.5811 27.0758 16.2951 27.0763 15.9988V14.7005C27.077 14.4773 27.016 14.2582 26.8999 14.0674C27.6496 13.6182 28.2993 13.02 28.8089 12.3099C29.3185 11.5998 29.6771 10.7928 29.8627 9.93868C30.0482 9.08458 30.0568 8.20151 29.8878 7.34398C29.7188 6.48644 29.3758 5.67264 28.8801 4.95279H34.0041ZM6.69087 8.28735C7.40136 8.28735 8.0959 8.49804 8.68665 8.89277C9.2774 9.2875 9.73784 9.84854 10.0097 10.505C10.2816 11.1614 10.3528 11.8837 10.2142 12.5805C10.0755 13.2773 9.73341 13.9174 9.23102 14.4198C8.72862 14.9222 8.08854 15.2644 7.39169 15.403C6.69485 15.5416 5.97256 15.4704 5.31615 15.1985C4.65974 14.9266 4.09869 14.4662 3.70396 13.8755C3.30924 13.2847 3.09855 12.5902 3.09855 11.8797C3.09855 10.9269 3.47703 10.0132 4.15072 9.33952C4.82441 8.66583 5.73813 8.28735 6.69087 8.28735ZM5.28903 16.9869C4.11432 16.9889 2.9883 17.4565 2.15766 18.2871C1.32701 19.1178 0.859454 20.2438 0.857422 21.4185V26.4778H2.65403V21.3176C2.65403 21.1808 2.70839 21.0496 2.80516 20.9528C2.90192 20.856 3.03316 20.8017 3.17 20.8017C3.30684 20.8017 3.43808 20.856 3.53484 20.9528C3.6316 21.0496 3.68597 21.1808 3.68597 21.3176V26.4778H10.5712V21.5772C10.5635 21.0445 10.7557 20.5282 11.1098 20.1301L16.4653 13.9259C16.6737 13.7048 16.7898 13.4124 16.7898 13.1085C16.7898 12.8047 16.6737 12.5123 16.4653 12.2912C16.2481 12.0749 15.954 11.9534 15.6475 11.9534C15.3409 11.9534 15.0469 12.0749 14.8297 12.2912L10.7847 16.3362C10.5816 16.5453 10.3378 16.7108 10.0685 16.8224C9.79911 16.934 9.50978 16.9893 9.21824 16.9851L5.28903 16.9869ZM24.8039 17.2175H22.4276C22.5752 17.3877 22.7577 17.5242 22.9626 17.6178C23.1676 17.7114 23.3902 17.7598 23.6155 17.7598C23.8408 17.7598 24.0635 17.7114 24.2685 17.6178C24.4734 17.5242 24.6559 17.3877 24.8035 17.2175H24.8039ZM21.3735 14.5156C21.3239 14.5157 21.2764 14.5354 21.2413 14.5704C21.2061 14.6053 21.1862 14.6528 21.1858 14.7023V15.9993C21.1861 16.0489 21.2059 16.0965 21.2411 16.1315C21.2763 16.1666 21.3239 16.1864 21.3735 16.1865H25.8585C25.908 16.1862 25.9555 16.1664 25.9904 16.1313C26.0254 16.0963 26.0451 16.0488 26.0452 15.9993V14.7005C26.0451 14.651 26.0254 14.6036 25.9904 14.5686C25.9554 14.5336 25.908 14.5139 25.8585 14.5138L21.3735 14.5156ZM23.616 3.21949C22.3869 3.21942 21.195 3.64146 20.2398 4.41501C19.2846 5.18855 18.6241 6.26667 18.3687 7.46897C18.1133 8.67127 18.2786 9.9248 18.8368 11.0198C19.3951 12.1149 20.3124 12.985 21.4355 13.4845H22.4484V10.7306H22.0274C21.7409 10.7303 21.4608 10.6452 21.2227 10.4858C20.9846 10.3264 20.799 10.1001 20.6895 9.8353C20.58 9.57053 20.5514 9.27923 20.6074 8.99822C20.6633 8.71721 20.8013 8.45909 21.0039 8.25648C21.2065 8.05387 21.4647 7.91586 21.7457 7.8599C22.0267 7.80393 22.318 7.83252 22.5828 7.94205C22.8475 8.05157 23.0739 8.23713 23.2333 8.47526C23.3926 8.71339 23.4778 8.99341 23.4781 9.27994V9.69869H23.7494V9.27994C23.7497 8.99341 23.8349 8.71339 23.9942 8.47526C24.1536 8.23713 24.3799 8.05157 24.6447 7.94205C24.9095 7.83252 25.2008 7.80393 25.4818 7.8599C25.7628 7.91586 26.0209 8.05387 26.2235 8.25648C26.4261 8.45909 26.5642 8.71721 26.6201 8.99822C26.6761 9.27923 26.6475 9.57053 26.538 9.8353C26.4284 10.1001 26.2429 10.3264 26.0048 10.4858C25.7666 10.6452 25.4866 10.7303 25.2001 10.7306H24.7804V13.4845H25.7943C26.9173 12.985 27.8347 12.1149 28.3929 11.0198C28.9512 9.9248 29.1164 8.67127 28.861 7.46897C28.6056 6.26667 27.9451 5.18855 26.9899 4.41501C26.0347 3.64146 24.8429 3.21942 23.6137 3.21949H23.616ZM23.7517 13.4845V10.7306H23.4803V13.4845H23.7517ZM25.2019 8.85894C25.1469 8.85881 25.0924 8.86962 25.0417 8.89073C24.9909 8.91185 24.9448 8.94285 24.9061 8.98194C24.8273 9.0602 24.7827 9.16658 24.7822 9.27768V9.69642H25.2019C25.3129 9.69642 25.4194 9.65231 25.498 9.57378C25.5765 9.49525 25.6206 9.38874 25.6206 9.27768C25.6206 9.16663 25.5765 9.06012 25.498 8.98159C25.4194 8.90306 25.3129 8.85894 25.2019 8.85894ZM22.325 8.98194C22.2862 8.94293 22.24 8.91198 22.1893 8.89085C22.1385 8.86973 22.084 8.85886 22.029 8.85886C21.974 8.85886 21.9195 8.86973 21.8687 8.89085C21.8179 8.91198 21.7718 8.94293 21.733 8.98194C21.6746 9.04053 21.6348 9.11512 21.6187 9.19629C21.6026 9.27747 21.611 9.36159 21.6426 9.43804C21.6743 9.51449 21.728 9.57983 21.7968 9.62582C21.8656 9.6718 21.9465 9.69637 22.0292 9.69642H22.448V9.27768C22.448 9.22271 22.4371 9.16828 22.416 9.11753C22.3949 9.06677 22.3639 9.02069 22.325 8.98194ZM12.2571 24.7752V21.8291H34.9668V24.7752H12.2571ZM12.2571 3.91996V0.973389H34.9668V3.92086H27.9929C26.8075 2.80712 25.2421 2.18712 23.6155 2.18712C21.989 2.18712 20.4236 2.80712 19.2382 3.92086L12.2571 3.91996ZM28.3664 20.0953H31.6354C31.7044 20.0974 31.7731 20.0855 31.8375 20.0605C31.9019 20.0355 31.9605 19.9979 32.0101 19.9498C32.0596 19.9017 32.099 19.8442 32.1259 19.7806C32.1528 19.717 32.1666 19.6486 32.1666 19.5796C32.1666 19.5105 32.1528 19.4422 32.1259 19.3786C32.099 19.315 32.0596 19.2575 32.0101 19.2094C31.9605 19.1613 31.9019 19.1236 31.8375 19.0986C31.7731 19.0736 31.7044 19.0618 31.6354 19.0639H28.3664C28.2974 19.0618 28.2287 19.0736 28.1643 19.0986C28.1 19.1236 28.0413 19.1613 27.9917 19.2094C27.9422 19.2575 27.9028 19.315 27.8759 19.3786C27.849 19.4422 27.8352 19.5105 27.8352 19.5796C27.8352 19.6486 27.849 19.717 27.8759 19.7806C27.9028 19.8442 27.9422 19.9017 27.9917 19.9498C28.0413 19.9979 28.1 20.0355 28.1643 20.0605C28.2287 20.0855 28.2974 20.0974 28.3664 20.0953ZM28.3664 18.1151H31.6354C31.7722 18.1151 31.9035 18.0608 32.0002 17.964C32.097 17.8672 32.1514 17.736 32.1514 17.5992C32.1514 17.4623 32.097 17.3311 32.0002 17.2343C31.9035 17.1376 31.7722 17.0832 31.6354 17.0832H28.3664C28.2987 17.0832 28.2316 17.0965 28.169 17.1225C28.1064 17.1484 28.0495 17.1864 28.0016 17.2343C27.9537 17.2822 27.9157 17.3391 27.8897 17.4017C27.8638 17.4643 27.8504 17.5314 27.8504 17.5992C27.8504 17.6669 27.8638 17.734 27.8897 17.7966C27.9157 17.8592 27.9537 17.9161 28.0016 17.964C28.0495 18.0119 28.1064 18.0499 28.169 18.0758C28.2316 18.1018 28.2987 18.1151 28.3664 18.1151ZM28.3664 16.1345H31.6354C31.7044 16.1365 31.7731 16.1247 31.8375 16.0997C31.9019 16.0747 31.9605 16.037 32.0101 15.9889C32.0596 15.9408 32.099 15.8833 32.1259 15.8197C32.1528 15.7561 32.1666 15.6878 32.1666 15.6187C32.1666 15.5497 32.1528 15.4813 32.1259 15.4178C32.099 15.3542 32.0596 15.2966 32.0101 15.2485C31.9605 15.2004 31.9019 15.1628 31.8375 15.1378C31.7731 15.1128 31.7044 15.1009 31.6354 15.103H28.3664C28.2974 15.1009 28.2287 15.1128 28.1643 15.1378C28.1 15.1628 28.0413 15.2004 27.9917 15.2485C27.9422 15.2966 27.9028 15.3542 27.8759 15.4178C27.849 15.4813 27.8352 15.5497 27.8352 15.6187C27.8352 15.6878 27.849 15.7561 27.8759 15.8197C27.9028 15.8833 27.9422 15.9408 27.9917 15.9889C28.0413 16.037 28.1 16.0747 28.1643 16.0997C28.2287 16.1247 28.2974 16.1365 28.3664 16.1345Z" fill="white"/>
</svg>
