<svg width="31" height="31" viewBox="0 0 31 31" fill="none" xmlns="http://www.w3.org/2000/svg">
<path d="M23.5836 6.06286L20.4574 3.39408V6.06286H23.5836ZM3.1921 6.33252V4.54071C3.18076 3.90437 2.66163 3.3928 2.02403 3.3928C1.38643 3.3928 0.867312 3.90437 0.855957 4.54071V6.33126L3.1921 6.33252ZM2.02403 24.3589L2.92875 22.6616H1.11931L2.02403 24.3589ZM3.19084 7.08863H0.855957V21.9019H3.19084V7.08863ZM9.13459 13.5275H21.1743V14.2836H9.13459V13.5275ZM9.13459 16.2354L18.3292 16.2341V16.9914H9.13459V16.2354ZM9.13963 18.9432L12.8037 18.942V19.698H9.13963V18.9432ZM13.7576 18.9432H14.8312V19.6993L13.7538 19.698L13.7576 18.9432ZM15.785 18.9432H16.8586V19.6993L15.7838 19.698L15.785 18.9432ZM9.13453 10.8195H21.1743V11.5756H9.13453V10.8195ZM9.13453 8.11167L21.1743 8.11293V8.86898H9.13453V8.11167ZM29.0622 25.4184C28.8681 25.5154 28.6564 25.5721 28.4397 25.5885L27.1923 25.6881C26.9768 25.7007 26.7739 25.7901 26.6202 25.9401L26.3216 26.2211L28.1902 30.0542C28.1928 30.0592 28.1953 30.063 28.1991 30.0681C28.2041 30.0693 28.2104 30.0693 28.2167 30.0693C28.2217 30.0693 28.2268 30.0681 28.2318 30.0655C28.2356 30.063 28.2394 30.058 28.2394 30.0529L28.654 29.0008L28.6552 28.9995C28.8026 28.6215 29.2159 28.4199 29.6053 28.5358L30.6889 28.8572C30.6952 28.8584 30.7015 28.8584 30.7066 28.8572C30.7116 28.8559 30.7167 28.8521 30.7192 28.8483C30.723 28.8446 30.7255 28.8395 30.7255 28.8345C30.7267 28.8282 30.7255 28.8219 30.7217 28.8168L29.0622 25.4184ZM22.4633 25.6112H20.5568L18.9931 28.818V28.8193C18.9893 28.8243 18.988 28.8306 18.988 28.8369C18.9893 28.8407 18.9918 28.8458 18.9943 28.8495C18.9981 28.8546 19.0019 28.8571 19.0082 28.8584C19.0132 28.8609 19.0195 28.8609 19.0246 28.8584L20.1082 28.537L20.1095 28.5383C20.296 28.4816 20.4976 28.498 20.674 28.5837C20.8504 28.6706 20.9877 28.8193 21.0596 29.002L21.4728 30.0541C21.4754 30.0604 21.4791 30.0642 21.4829 30.068C21.488 30.0705 21.493 30.0718 21.498 30.0718C21.5031 30.0718 21.5094 30.0718 21.5144 30.0693C21.5182 30.0667 21.522 30.0617 21.5245 30.0567L23.3579 26.298L22.7594 25.789V25.7877C22.6787 25.7172 22.5867 25.6617 22.4872 25.6227C22.4796 25.6189 22.4721 25.6164 22.4632 25.6138L22.4633 25.6112ZM20.732 24.5515L20.7635 24.5767H20.7622C20.921 24.7027 21.1163 24.7732 21.3179 24.7783L22.1962 24.806C22.5843 24.8136 22.9573 24.9585 23.2483 25.213L24.0522 25.8972L24.0535 25.8985C24.0661 25.9086 24.0774 25.9199 24.0888 25.9325L24.2009 26.0283V26.027C24.5663 26.3445 25.1119 26.3307 25.461 25.9968L25.5844 25.8821C25.5945 25.8708 25.6059 25.8594 25.6185 25.8481L26.1036 25.3919L26.1023 25.3932C26.2422 25.2609 26.4035 25.1525 26.5786 25.0731C26.7551 24.9963 26.9428 24.9509 27.1343 24.9383L28.3818 24.8388H28.3831C28.5897 24.8224 28.785 24.7392 28.9388 24.6006C28.9488 24.5905 28.9589 24.5817 28.9703 24.5729C28.9803 24.5641 28.9854 24.5578 28.9929 24.5489L28.9917 24.5502C29.153 24.3814 29.2449 24.1596 29.2512 23.9265L29.279 23.0469C29.2878 22.6601 29.4314 22.2871 29.686 21.9948L30.4987 21.0435V21.0447C30.8162 20.6793 30.8024 20.1325 30.4684 19.7821L29.8636 19.1395C29.7313 19.0009 29.623 18.8396 29.5436 18.6645C29.4667 18.4893 29.4213 18.3016 29.4087 18.11L29.3092 16.8626V16.8613C29.2739 16.38 28.8808 16.0045 28.3982 15.9906L27.5187 15.9629V15.9641C27.1306 15.9566 26.7576 15.8117 26.4653 15.5559L25.5139 14.7432H25.5152C25.1485 14.4294 24.6042 14.442 24.2539 14.7747L23.6125 15.3782C23.334 15.6479 22.9686 15.8104 22.5818 15.8356L21.3343 15.9352C20.853 15.9692 20.4762 16.3623 20.4636 16.8449L20.4359 17.7245C20.4334 17.9173 20.3968 18.1075 20.3275 18.2877C20.257 18.4667 20.1574 18.6317 20.0314 18.7766L19.2162 19.7292L19.2174 19.7305C18.9024 20.0959 18.915 20.6402 19.2477 20.9892L19.85 21.6319C19.9835 21.7705 20.0932 21.9318 20.1713 22.1069C20.2469 22.2833 20.2935 22.4711 20.3074 22.6626L20.4069 23.9126L20.4057 23.9113C20.4233 24.1445 20.5254 24.3624 20.6942 24.5225C20.7056 24.5351 20.7169 24.5464 20.7308 24.5565L20.732 24.5515ZM24.2287 13.9001V6.81862H20.0781C19.8702 6.81862 19.7013 6.64977 19.7013 6.4406V2.95293H7.37547C6.66104 2.95545 6.08266 3.53382 6.08015 4.24951V23.5598C6.08267 24.2742 6.66104 24.8526 7.37547 24.8551H19.9862C19.7934 24.5968 19.6775 24.2893 19.6522 23.968L19.5552 22.7205L19.554 22.7193C19.5464 22.6134 19.5212 22.5089 19.4796 22.4106C19.4355 22.3135 19.3738 22.2241 19.2994 22.1485L18.6971 21.5071C18.1037 20.8746 18.0809 19.898 18.6442 19.2403L19.4569 18.2889C19.5262 18.2083 19.5829 18.1163 19.622 18.0168C19.6598 17.9172 19.68 17.8114 19.6825 17.7043L19.7102 16.8248V16.826C19.7341 15.9578 20.4083 15.2484 21.2739 15.1816L22.5214 15.0846C22.6285 15.077 22.7331 15.0506 22.8326 15.0077C22.9297 14.9649 23.0179 14.9044 23.0947 14.8301L23.7348 14.2278C23.8797 14.0917 24.0461 13.9821 24.2288 13.9027L24.2287 13.9001ZM26.4653 14.5641L26.464 2.01408C26.4602 1.3009 25.8831 0.722524 25.1687 0.71875H9.61191C8.89618 0.72127 8.31784 1.29964 8.31532 2.01408V2.19679H20.078C20.1775 2.19679 20.2733 2.23585 20.3439 2.30641L24.8512 6.15472C24.9356 6.22654 24.9835 6.33113 24.9835 6.44075H24.9847V13.7654C25.3603 13.7843 25.7181 13.928 26.0029 14.1724L26.4653 14.5641ZM26.929 18.3141C25.9398 17.3249 24.39 17.1699 23.2258 17.9474C22.0615 18.7236 21.6092 20.2142 22.1434 21.507C22.679 22.7998 24.0524 23.5357 25.4246 23.2622C26.7981 22.9901 27.786 21.7855 27.786 20.3855C27.7872 19.6094 27.4783 18.8634 26.929 18.3141ZM24.8574 16.6987V16.6999C26.0356 16.6999 27.1432 17.2632 27.8375 18.2145C28.5305 19.1671 28.7283 20.3944 28.3667 21.5157C28.005 22.6372 27.1293 23.518 26.0104 23.8872C24.8914 24.2551 23.6629 24.0661 22.7066 23.3781H22.631V23.3227C22.4974 23.2206 22.3714 23.111 22.2529 22.9913C21.1983 21.9379 20.8833 20.3527 21.4528 18.9756C22.0236 17.5983 23.3667 16.6999 24.8574 16.6987Z" fill="white"/>
</svg>
