<svg width="36" height="36" viewBox="0 0 36 36" fill="none" xmlns="http://www.w3.org/2000/svg">
<path fill-rule="evenodd" clip-rule="evenodd" d="M15.2374 24.0389L17.939 23.3196C18.5417 23.1328 19.1317 22.9108 19.7078 22.6537C19.9185 21.4638 19.9185 20.2471 19.7078 19.0572C17.8505 18.7537 16.2489 17.5807 15.4002 15.9005C14.5503 14.2202 14.5559 12.2353 15.4143 10.5589L14.4182 9.12034C14.1949 9.20042 13.9603 9.23975 13.7242 9.23835H12.3783C12.4893 9.72305 12.6467 10.1951 12.849 10.6489C12.9333 10.8427 12.863 11.0703 12.6846 11.1827C12.5062 11.2965 12.2716 11.2642 12.1297 11.1055C11.8557 10.507 11.6393 9.88322 11.4862 9.24258H8.96867C8.82256 9.88462 8.61182 10.5098 8.33928 11.1097C8.29011 11.2249 8.19176 11.3134 8.07095 11.3513C7.95013 11.3892 7.81807 11.371 7.7113 11.3035C7.60453 11.2361 7.53288 11.1237 7.51602 10.9987C7.49776 10.8736 7.53569 10.7472 7.61998 10.6531C7.81666 10.1979 7.96839 9.72586 8.07655 9.24257H6.73208C6.49465 9.24397 6.26004 9.20463 6.03806 9.12456L3.20442 13.2354C0.113664 17.7382 -0.65462 23.4167 3.20442 27.2786C4.61914 28.6863 6.4244 29.636 8.38697 30.0054C10.3482 30.3749 12.3755 30.1459 14.2061 29.3508C14.1836 29.296 14.1654 29.2398 14.1513 29.1822L13.5542 26.9527V26.9512C13.2199 25.6827 13.9716 24.3831 15.2374 24.0389ZM12.2886 24.348C11.8488 24.7905 11.2771 25.08 10.6589 25.1713V26.0423C10.6589 26.2797 10.4665 26.4736 10.2276 26.4736C9.99022 26.4736 9.79635 26.2797 9.79635 26.0423V25.1713C9.46339 25.1207 9.14028 25.0139 8.84385 24.8552C8.41677 24.6234 8.05572 24.2904 7.79019 23.8844C7.71432 23.7889 7.68342 23.6667 7.70309 23.5472C7.72275 23.4278 7.79019 23.3225 7.89274 23.2564C7.9939 23.189 8.11752 23.1693 8.23553 23.1988C8.35214 23.2283 8.45188 23.3056 8.50949 23.4124C8.90427 24.0193 9.58984 24.3719 10.3133 24.3424C11.0354 24.3129 11.6901 23.9055 12.0343 23.269C12.3799 22.6326 12.3631 21.8613 11.9922 21.239C11.6227 20.618 10.9512 20.2373 10.2277 20.2373C8.71039 20.2247 7.45586 19.0502 7.34347 17.5371C7.23108 16.0241 8.29737 14.6768 9.79639 14.4394V13.5585C9.79639 13.3197 9.99026 13.1272 10.2277 13.1272C10.4665 13.1272 10.659 13.3197 10.659 13.5585V14.4295C10.9919 14.4787 11.3136 14.5869 11.6087 14.7485C12.0385 14.9789 12.4038 15.3104 12.6735 15.7164C12.7887 15.9145 12.7297 16.1674 12.5387 16.2938C12.3476 16.4203 12.0905 16.3753 11.9542 16.1913C11.7688 15.9047 11.5131 15.6701 11.2139 15.5085C10.3232 15.0477 9.23159 15.2978 8.63029 16.1C8.0304 16.9022 8.09783 18.0204 8.78905 18.7454C9.16977 19.1275 9.68817 19.3439 10.2276 19.3453C11.419 19.3326 12.4993 20.0463 12.9531 21.1491C13.4069 22.2505 13.1442 23.5177 12.2886 24.348ZM20.6576 18.234C22.6947 18.234 24.531 17.0075 25.3093 15.1264C26.089 13.2438 25.6577 11.0789 24.2177 9.63884C22.7777 8.19884 20.613 7.76755 18.7316 8.54723C16.8491 9.32695 15.6226 11.1617 15.6226 13.1989C15.6184 14.5378 16.1466 15.8233 17.0907 16.7716C18.0362 17.7184 19.3189 18.2523 20.6577 18.2523L20.6576 18.234ZM19.507 10.8245C19.7121 10.6165 19.9693 10.4676 20.2516 10.3932V10.1417C20.2516 9.90287 20.4441 9.7104 20.6829 9.7104C20.9217 9.7104 21.1142 9.90287 21.1142 10.1417V10.3932C21.3081 10.4466 21.4907 10.5351 21.6537 10.6531C21.9389 10.8596 22.151 11.149 22.262 11.4834C22.3112 11.6983 22.1903 11.9175 21.981 11.9891C21.7717 12.0593 21.5413 11.961 21.4485 11.7601C21.3727 11.5269 21.1929 11.3428 20.9638 11.2586C20.7334 11.1743 20.4763 11.1996 20.2684 11.3274C20.0591 11.4553 19.92 11.673 19.8905 11.916C19.8624 12.1591 19.9453 12.4022 20.1181 12.5763C20.26 12.7238 20.4539 12.8081 20.6576 12.8109C21.0945 12.8123 21.5103 12.9922 21.8124 13.3069C22.2198 13.7199 22.3827 14.3156 22.2423 14.8789C22.1004 15.4409 21.6761 15.8904 21.1212 16.0619V16.3316C21.1212 16.569 20.9287 16.7629 20.6899 16.7629C20.4524 16.7629 20.2586 16.569 20.2586 16.3316V16.0759C20.0408 16.0267 19.8343 15.934 19.6545 15.8019C19.3735 15.6025 19.1614 15.3215 19.0462 14.9969C18.9675 14.7708 19.0883 14.5235 19.3145 14.4448C19.5407 14.3661 19.7879 14.487 19.8666 14.7131C19.9748 15.0419 20.2825 15.2653 20.6295 15.2624C20.8402 15.2624 21.0439 15.1795 21.1942 15.0292C21.5019 14.7145 21.5019 14.2116 21.1942 13.8969C21.0523 13.7494 20.8585 13.6651 20.6548 13.6623C20.2207 13.6581 19.8076 13.4797 19.507 13.1664C18.8621 12.5187 18.8622 11.4721 19.507 10.8245ZM33.2061 18.9741L31.9473 21.1531V21.1545C31.8293 21.3596 31.5666 21.4298 31.3615 21.3118C31.155 21.1938 31.0847 20.9311 31.2027 20.726L32.4545 18.5428C32.5065 18.4347 32.602 18.3532 32.7158 18.3166C32.831 18.2815 32.956 18.2956 33.06 18.356C33.1639 18.4164 33.2384 18.5175 33.2651 18.6355C33.2904 18.7522 33.2679 18.8758 33.1991 18.9741L33.2061 18.9741ZM35.3317 26.9116C35.2755 27.0113 35.1814 27.083 35.0704 27.1125C34.9608 27.142 34.8428 27.1251 34.7458 27.0661L32.5669 25.8073H32.5655C32.4671 25.7511 32.3941 25.657 32.3646 25.5474C32.3351 25.4379 32.3505 25.3198 32.4081 25.2215C32.5275 25.0164 32.7917 24.9476 32.9982 25.067L35.1771 26.3257C35.2755 26.3833 35.3471 26.4761 35.3766 26.587C35.4047 26.6966 35.3893 26.8132 35.3317 26.9116ZM32.2676 23.1648C32.2381 23.0538 32.2536 22.9358 32.3112 22.836C32.3674 22.7377 32.4629 22.6646 32.5725 22.6351L35.0043 21.9847C35.1181 21.9439 35.2432 21.9523 35.3499 22.0085C35.4567 22.0647 35.5354 22.1631 35.5677 22.2797C35.5986 22.3949 35.5789 22.5199 35.5143 22.6225C35.4511 22.7236 35.3457 22.7939 35.2277 22.8149L32.8142 23.4696C32.7018 23.5047 32.5781 23.4921 32.4756 23.4345C32.3716 23.3769 32.2971 23.2785 32.2676 23.1648ZM31.0159 29.6312C31.1086 30.1131 30.8122 30.5837 30.3373 30.7074C29.8625 30.8324 29.3736 30.5669 29.2176 30.1019L26.1606 18.6647C26.0496 18.1772 26.3433 17.6869 26.8279 17.5576C27.3112 17.4284 27.8114 17.7037 27.9589 18.1828L31.0159 29.6312ZM25.5453 19.6974L28.1639 29.4698C25.718 28.624 22.2578 28.7505 19.9747 29.2141L18.5825 24.0161C20.7937 23.2687 23.8484 21.6572 25.5453 19.6974ZM30.6562 24.8436L30.0451 22.6183L30.1631 22.6365V22.6351C30.4694 22.6857 30.7153 22.9119 30.7925 23.2111L30.9906 23.9557C31.0749 24.2536 30.9737 24.5724 30.7321 24.7649L30.6562 24.8436ZM19.1475 29.4194L16.8463 30.0305C16.4557 30.1359 16.0399 30.0811 15.6915 29.8774C15.3417 29.6751 15.0888 29.3421 14.9862 28.9516L14.3891 26.7221C14.177 25.91 14.6589 25.0797 15.4681 24.862L17.7623 24.2509L19.1475 29.4194ZM5.51746 7.1492C5.51886 6.47907 6.06254 5.93539 6.73268 5.93398H13.7246C14.3948 5.93398 14.9398 6.47766 14.9398 7.1492C14.9398 7.82074 14.3948 8.36442 13.7246 8.36442H6.73268C6.06254 8.36302 5.51886 7.81934 5.51746 7.1492ZM23.1403 33.2026C23.4957 33.8193 23.285 34.6103 22.6668 34.9657C22.0487 35.3225 21.2591 35.1104 20.9023 34.4936L18.5646 30.4616L19.7658 30.1385C20.183 30.0415 20.6719 29.9516 21.2044 29.88L23.1403 33.2026ZM22.9464 30.39H22.945C22.893 30.5235 22.8158 30.6457 22.716 30.7497L22.1625 29.7887C22.4392 29.7676 22.7202 29.7494 23.0082 29.7381H23.0068C23.049 29.9587 23.0237 30.1863 22.931 30.39L22.9464 30.39ZM5.84076 2.88653C5.54293 2.11666 6.10347 1.2639 6.91971 1.04894C7.73594 0.833974 8.60276 1.29339 8.71796 2.11102C8.63507 1.29059 9.40071 0.610596 10.2282 0.610596C11.0557 0.610596 11.8185 1.29055 11.7286 2.11102C11.8508 1.29479 12.7682 0.838182 13.5662 1.05034C14.3642 1.2625 14.9261 2.12929 14.6452 2.88793L13.7741 5.06971H6.6822L5.84076 2.88653Z" fill="#491c0e"/>
</svg>
