<svg width="32" height="29" viewBox="0 0 32 29" fill="none" xmlns="http://www.w3.org/2000/svg">
<path d="M9.23443 16.687L10.2343 11.0088C10.2463 10.9424 10.2077 10.9014 10.1932 10.887C10.1788 10.8737 10.1534 10.8556 10.1173 10.8544H10.0895C10.0835 10.8556 10.0763 10.858 10.069 10.8592C9.61918 10.9931 8.93171 11.2729 8.09954 11.8578C8.09351 11.8627 8.08627 11.8687 8.08024 11.8723C7.97411 11.9483 7.86436 12.0279 7.7546 12.1135C6.23135 13.287 4.40312 12.0918 3.43457 11.2609L4.62737 16.6868L9.23443 16.687Z" fill="white"/>
<path d="M1.12225 20.0153C1.4117 18.8925 2.96753 17.953 3.86843 17.4911V17.4899C4.15667 17.3439 4.37737 17.245 4.47024 17.2064C4.49919 17.1944 4.51487 17.1883 4.51728 17.1871C4.57758 17.163 4.62341 17.1184 4.65236 17.0629C4.66321 17.04 4.67045 17.0135 4.67527 16.9857C4.67648 16.9701 4.67768 16.9532 4.67768 16.9363C4.67648 16.9327 4.67648 16.9302 4.67648 16.9254C4.67527 16.911 4.67407 16.8965 4.67045 16.8844C4.66804 16.8724 4.66442 16.8591 4.65839 16.8482C4.64753 16.8217 4.63427 16.7988 4.61497 16.7783C4.60773 16.7674 4.59688 16.759 4.58603 16.7493C4.57517 16.7397 4.56432 16.7325 4.55225 16.724C4.53055 16.7095 4.50401 16.6999 4.47627 16.6927C4.47266 16.6915 4.46301 16.6902 4.45215 16.6878C4.39788 16.6746 4.26521 16.6492 4.0807 16.6239C3.33293 16.5286 1.72527 16.4768 0.966641 17.6527C0.889454 17.7721 0.923225 17.9337 1.04504 18.0109C1.16564 18.0893 1.32725 18.0543 1.40325 17.9325C1.86517 17.2173 2.79262 17.0858 3.48611 17.1015C2.49715 17.6237 0.944939 18.6224 0.6193 19.8827C0.583118 20.0214 0.666335 20.1637 0.805032 20.1999C0.826741 20.2047 0.849656 20.2095 0.871364 20.2095C0.987145 20.2107 1.0921 20.1323 1.12225 20.0153Z" fill="white"/>
<path d="M13.5039 24.9573H14.2239V18.9284H10.6924L13.2733 24.3025C13.3747 24.5147 13.452 24.7342 13.5039 24.9573Z" fill="white"/>
<path d="M13.0248 25.2274C12.9875 24.9886 12.9127 24.7534 12.8041 24.5267L10.0507 18.7919C10.0471 18.7847 10.0435 18.7775 10.0398 18.7702L9.28847 17.2072H4.5825L1.06676 24.5267C0.713393 25.2636 0.73269 26.1006 1.11983 26.8218C1.50336 27.5382 2.18477 28.0122 2.98681 28.1244C5.60637 28.4874 8.26335 28.4874 10.8828 28.1244C11.4907 28.04 12.0285 27.7481 12.4205 27.2994C12.4253 27.2922 12.4338 27.2826 12.441 27.2753C12.5592 27.1378 12.6629 26.9871 12.7522 26.8218C13.0127 26.337 13.1067 25.8015 13.0332 25.2793C13.0308 25.2612 13.0297 25.2442 13.0248 25.2274Z" fill="white"/>
<path d="M9.72852 16.8834H14.2236V10.8544H10.7431C10.7587 10.934 10.76 11.0172 10.7455 11.1004L9.72852 16.8834Z" fill="white"/>
<path d="M30.6635 0.597656H7.62918C7.17569 0.597656 6.80664 0.966705 6.80664 1.4202V12.0165C7.02373 11.9574 7.23478 11.8561 7.43742 11.7005C7.51822 11.6378 7.59782 11.5799 7.67501 11.522V10.5934C7.67501 10.4487 7.792 10.3329 7.93552 10.3329H10.0606C10.0871 10.3317 10.1124 10.3317 10.1378 10.3329H14.4844C14.6279 10.3329 14.7449 10.4487 14.7449 10.5934V17.1423C14.7449 17.2858 14.6279 17.4028 14.4844 17.4028H9.96178L10.4442 18.4086H14.4845C14.628 18.4086 14.745 18.5244 14.745 18.6691V25.218C14.745 25.3616 14.628 25.4785 14.4845 25.4785H13.5751C13.6029 26.0213 13.4799 26.5676 13.2121 27.0681C13.188 27.1139 13.1627 27.1574 13.1349 27.2008L30.6636 27.1996C31.1171 27.1996 31.4862 26.8293 31.4862 26.3758V1.42141C31.4862 0.96671 31.117 0.597656 30.6635 0.597656ZM22.6817 25.218C22.6817 25.3615 22.5647 25.4785 22.4212 25.4785H15.871C15.7275 25.4785 15.6105 25.3615 15.6105 25.218L15.6117 18.6691C15.6117 18.5244 15.7287 18.4086 15.8722 18.4086H22.4224C22.5659 18.4086 22.6829 18.5244 22.6829 18.6691L22.6817 25.218ZM22.6817 17.1423C22.6817 17.2871 22.5647 17.4029 22.4212 17.4029H15.871C15.7275 17.4029 15.6105 17.2871 15.6105 17.1423L15.6117 10.5934C15.6117 10.4499 15.7287 10.3329 15.8722 10.3329H22.4224C22.5659 10.3329 22.6829 10.4499 22.6829 10.5934L22.6817 17.1423ZM30.6175 25.218C30.6175 25.3615 30.5005 25.4785 30.357 25.4785H23.8081C23.6634 25.4785 23.5476 25.3615 23.5476 25.218L23.5488 10.5934C23.5488 10.4499 23.6646 10.3329 23.8093 10.3329H30.3582C30.5017 10.3329 30.6187 10.4499 30.6187 10.5934L30.6175 25.218ZM30.6175 7.89651C30.6175 8.04003 30.5005 8.15702 30.357 8.15702H7.93523C7.79171 8.15702 7.67472 8.04003 7.67472 7.89651V2.57891C7.67472 2.43418 7.79171 2.3184 7.93523 2.3184H30.3582C30.5017 2.3184 30.6187 2.43418 30.6187 2.57891L30.6175 7.89651Z" fill="white"/>
<path d="M16.1318 18.9284H22.162V24.9573H16.1318V18.9284Z" fill="white"/>
<path d="M24.0688 10.8527H30.0978V24.9576H24.0688V10.8527Z" fill="white"/>
<path d="M16.1318 10.8527H22.162V16.8817H16.1318V10.8527Z" fill="white"/>
<path d="M8.19434 2.83881H30.0974V7.63648H8.19434V2.83881Z" fill="white"/>
</svg>
