<svg width="22" height="23" viewBox="0 0 22 23" fill="none" xmlns="http://www.w3.org/2000/svg">
<path d="M19.8834 15.7743H12.2685C11.7638 15.7734 11.2798 15.9738 10.9221 16.3305C10.5654 16.6882 10.365 17.1722 10.366 17.6769V18.9455C10.3669 19.4502 10.1665 19.9352 9.80981 20.2929C9.45215 20.6505 8.9681 20.8509 8.4625 20.8509C8.1114 20.8509 7.82771 20.5662 7.82771 20.2151C7.82771 19.865 8.1114 19.5804 8.4625 19.5804C8.63197 19.5822 8.79394 19.5158 8.91378 19.3968C9.03363 19.277 9.09917 19.1141 9.09729 18.9456V17.6769C9.09729 15.926 10.5176 14.5058 12.2684 14.5058H19.2744L19.2482 3.71986C19.2482 1.96902 17.8288 0.547834 16.0772 0.546875H3.38784C1.63605 0.546875 0.214847 1.96815 0.214847 3.71986C0.213911 4.22546 0.414274 4.70951 0.77193 5.06624C1.12866 5.4239 1.61271 5.62426 2.1183 5.62332H5.29129V18.9457C5.29129 20.6965 6.7107 22.1177 8.46236 22.1186H18.6136C20.3654 22.1186 21.7866 20.6974 21.7866 18.9457V17.677C21.7876 17.1723 21.5872 16.6883 21.2295 16.3306C20.8728 15.9739 20.389 15.7734 19.8834 15.7743ZM11.0149 3.08503H13.5391C13.7141 3.07473 13.8855 3.13653 14.0128 3.25637C14.1411 3.37621 14.2132 3.5438 14.2132 3.7189C14.2132 3.89399 14.1411 4.06158 14.0128 4.18142C13.8855 4.3022 13.7142 4.364 13.5391 4.35276H11.013C10.6778 4.33216 10.4166 4.05502 10.4166 3.7189C10.4166 3.38373 10.6778 3.10564 11.013 3.08505L11.0149 3.08503ZM8.46271 6.89104H16.0776C16.4128 6.91163 16.674 7.18971 16.674 7.52489C16.674 7.861 16.4128 8.13909 16.0776 8.15968H8.46271C8.28763 8.16998 8.11629 8.10818 7.98895 7.98834C7.86068 7.86756 7.78858 7.70091 7.78858 7.52488C7.78858 7.3498 7.86068 7.1822 7.98895 7.06236C8.11628 6.94251 8.28762 6.88074 8.46271 6.89104ZM8.46271 9.42933H16.0776C16.4128 9.44993 16.674 9.72801 16.674 10.0632C16.674 10.3993 16.4128 10.6774 16.0776 10.698H8.46271C8.28763 10.7083 8.11629 10.6465 7.98895 10.5266C7.86068 10.4059 7.78858 10.2392 7.78858 10.0632C7.78858 9.88809 7.86068 9.72049 7.98895 9.60065C8.11628 9.48081 8.28762 9.41903 8.46271 9.42933ZM8.46271 11.9676H16.0776C16.4128 11.9882 16.674 12.2663 16.674 12.6024C16.674 12.9376 16.4128 13.2157 16.0776 13.2363H8.46271C8.28763 13.2466 8.11629 13.1848 7.98895 13.0649C7.86068 12.9451 7.78858 12.7775 7.78858 12.6024C7.78858 12.4264 7.86068 12.2597 7.98895 12.1389C8.11628 12.0191 8.28762 11.9573 8.46271 11.9676ZM5.29164 4.35274H2.11865C1.95013 4.35461 1.78721 4.28907 1.66831 4.17017C1.54846 4.05126 1.48199 3.88928 1.48292 3.71982C1.46513 3.20394 1.65707 2.70114 2.01661 2.32943C2.37521 1.95773 2.8705 1.74706 3.38734 1.74706C3.90418 1.74706 4.39947 1.95773 4.759 2.32943C5.1176 2.70114 5.31047 3.20391 5.29175 3.71982L5.29164 4.35274Z" fill="#0d7323"/>
</svg>
