<svg width="29" height="29" viewBox="0 0 29 29" fill="none" xmlns="http://www.w3.org/2000/svg">
<path d="M25.6264 20.4565H15.8425C15.1941 20.4553 14.5721 20.7127 14.1126 21.1711C13.6543 21.6306 13.3968 22.2525 13.398 22.9009V24.531C13.3992 25.1794 13.1418 25.8025 12.6835 26.262C12.2239 26.7216 11.602 26.979 10.9524 26.979C10.5013 26.979 10.1368 26.6133 10.1368 26.1622C10.1368 25.7123 10.5013 25.3466 10.9524 25.3466C11.1701 25.349 11.3782 25.2636 11.5322 25.1108C11.6862 24.9568 11.7704 24.7475 11.768 24.531V22.901C11.768 20.6514 13.5929 18.8266 15.8423 18.8266H24.844L24.8103 4.96839C24.8103 2.71883 22.9866 0.892833 20.736 0.891602H4.43226C2.1815 0.891602 0.355473 2.71772 0.355473 4.96839C0.35427 5.618 0.611706 6.23993 1.07124 6.69827C1.52957 7.15781 2.1515 7.41523 2.80111 7.41403H6.8779V24.5311C6.8779 26.7807 8.70161 28.6067 10.9522 28.6079H23.995C26.2457 28.6079 28.0718 26.7818 28.0718 24.5311V22.9011C28.073 22.2527 27.8155 21.6307 27.356 21.1712C26.8977 20.7129 26.276 20.4553 25.6264 20.4565ZM14.2318 4.15273H17.475C17.6999 4.1395 17.9201 4.21889 18.0837 4.37287C18.2485 4.52685 18.3411 4.74218 18.3411 4.96714C18.3411 5.19211 18.2485 5.40744 18.0837 5.56142C17.9201 5.7166 17.6999 5.796 17.475 5.78156H14.2294C13.7987 5.75509 13.4631 5.39901 13.4631 4.96716C13.4631 4.5365 13.7987 4.17921 14.2294 4.15275L14.2318 4.15273ZM10.9527 9.04284H20.7366C21.1672 9.06931 21.5029 9.42659 21.5029 9.85724C21.5029 10.2891 21.1673 10.6464 20.7366 10.6728H10.9527C10.7277 10.6861 10.5076 10.6067 10.344 10.4527C10.1791 10.2975 10.0865 10.0834 10.0865 9.85723C10.0865 9.63227 10.1791 9.41694 10.344 9.26296C10.5076 9.10898 10.7277 9.02961 10.9527 9.04284ZM10.9527 12.3041H20.7366C21.1672 12.3306 21.5029 12.6879 21.5029 13.1185C21.5029 13.5504 21.1673 13.9077 20.7366 13.9342H10.9527C10.7277 13.9474 10.5076 13.868 10.344 13.714C10.1791 13.5588 10.0865 13.3447 10.0865 13.1185C10.0865 12.8936 10.1791 12.6782 10.344 12.5243C10.5076 12.3703 10.7277 12.2909 10.9527 12.3041ZM10.9527 15.5655H20.7366C21.1672 15.5919 21.5029 15.9492 21.5029 16.3811C21.5029 16.8117 21.1673 17.169 20.7366 17.1955H10.9527C10.7277 17.2087 10.5076 17.1293 10.344 16.9753C10.1791 16.8213 10.0865 16.606 10.0865 16.381C10.0865 16.1549 10.1791 15.9408 10.344 15.7856C10.5076 15.6316 10.7277 15.5522 10.9527 15.5655ZM6.87835 5.78153H2.80156C2.58503 5.78394 2.37572 5.69973 2.22294 5.54695C2.06896 5.39418 1.98355 5.18606 1.98475 4.96833C1.96189 4.3055 2.2085 3.65949 2.67045 3.18191C3.13119 2.70432 3.76756 2.43365 4.43162 2.43365C5.09567 2.43365 5.73205 2.70432 6.19399 3.18191C6.65473 3.65949 6.90254 4.30547 6.87849 4.96833L6.87835 5.78153Z" fill="white"/>
</svg>
