<svg width="28" height="23" viewBox="0 0 28 23" fill="none" xmlns="http://www.w3.org/2000/svg">
<path d="M10.2535 17.0144C9.59052 16.9949 9.04451 16.4684 9.06401 15.7859C9.06401 15.1228 9.59052 14.5963 10.2535 14.5963C10.9361 14.5963 11.4626 15.1228 11.4626 15.7859C11.4626 16.4684 10.9361 17.0144 10.2535 17.0144ZM17.2347 17.0144C16.5522 17.0339 16.0257 16.4684 16.0257 15.7859C16.0257 15.1228 16.5522 14.5963 17.2347 14.5963C17.8978 14.5963 18.4243 15.1228 18.4243 15.7859C18.4243 16.4684 17.8978 16.9949 17.2347 17.0144ZM17.2152 13.3678C16.6107 13.3678 16.0452 13.6018 15.6162 13.9918L14.8557 11.9247L16.7082 7.75162C17.2737 6.54259 17.0592 4.98254 15.9282 4.57303L13.7441 9.44817L11.5601 4.57303C10.429 4.98254 10.2145 6.54259 10.7801 7.75162L12.6326 11.9247L11.8721 13.9918C11.4431 13.6018 10.8776 13.3678 10.273 13.3678C8.9275 13.3678 7.83547 14.4598 7.83547 15.7859C7.83547 17.1314 8.9275 18.2234 10.2535 18.2234C11.3456 18.2234 12.1061 17.5994 12.7106 16.3904L13.7441 14.2453L14.7777 16.3904C15.3822 17.5994 16.1427 18.2234 17.2347 18.2234C18.5608 18.2234 19.6528 17.1314 19.6528 15.7859C19.6528 14.4598 18.5608 13.3678 17.2152 13.3678ZM1.65379 22.1235C0.600764 22.1235 0.09375 21.6165 0.09375 20.5635V2.23297C0.09375 1.17994 0.600764 0.67292 1.65379 0.67292H25.8345C26.8875 0.67292 27.3945 1.17994 27.3945 2.23297V20.5635C27.3945 21.6165 26.8875 22.1235 25.8345 22.1235H1.65379ZM2.04381 20.1735H3.99386V18.2234H2.04381V20.1735ZM2.04381 16.2734H3.99386V14.3233H2.04381V16.2734ZM2.04381 12.3733H3.99386V10.4232H2.04381V12.3733ZM2.04381 8.47314H3.99386V6.52309H2.04381V8.47314ZM2.04381 4.57303H3.99386V2.62298H2.04381V4.57303ZM23.4944 20.1735H25.4445V18.2234H23.4944V20.1735ZM23.4944 16.2734H25.4445V14.3233H23.4944V16.2734ZM23.4944 12.3733H25.4445V10.4232H23.4944V12.3733ZM23.4944 8.47314H25.4445V6.52309H23.4944V8.47314ZM23.4944 4.57303H25.4445V2.62298H23.4944V4.57303Z" fill="#754b1b"/>
</svg>
