<svg width="20" height="21" viewBox="0 0 20 21" fill="none" xmlns="http://www.w3.org/2000/svg">
<path fill-rule="evenodd" clip-rule="evenodd" d="M9.99 0.652344C4.47 0.652344 0 5.13234 0 10.6523C0 16.1723 4.47 20.6523 9.99 20.6523C15.52 20.6523 20 16.1723 20 10.6523C20 5.13234 15.52 0.652344 9.99 0.652344ZM10 18.6523C5.58 18.6523 2 15.0723 2 10.6523C2 6.23234 5.58 2.65234 10 2.65234C14.42 2.65234 18 6.23234 18 10.6523C18 15.0723 14.42 18.6523 10 18.6523ZM9.78 5.65234H9.72C9.32 5.65234 9 5.97234 9 6.37234V11.0923C9 11.4423 9.18 11.7723 9.49 11.9523L13.64 14.4423C13.98 14.6423 14.42 14.5423 14.62 14.2023C14.83 13.8623 14.72 13.4123 14.37 13.2123L10.5 10.9123V6.37234C10.5 5.97234 10.18 5.65234 9.78 5.65234Z" fill="#333333"/>
</svg>
