<svg width="11" height="18" viewBox="0 0 11 18" fill="none" xmlns="http://www.w3.org/2000/svg">
<path fill-rule="evenodd" clip-rule="evenodd" d="M6.09035 10.1484C4.33897 11.5495 2.1945 13.6829 0.753175 16.5656L2.98926 17.6836C4.2146 15.2328 6.07013 13.3662 7.65208 12.1006C8.43862 11.4714 9.14534 11.0005 9.65132 10.6892C9.90395 10.5337 10.1055 10.4186 10.2407 10.3441C10.3082 10.3068 10.3591 10.2797 10.3913 10.2628L10.4255 10.2451L10.4302 10.2426L10.4308 10.2423C10.4308 10.2424 10.4307 10.2424 10.4302 10.2414L10.4302 8.00784C10.4308 8.00683 10.4308 8.00685 10.4308 8.00686L10.4302 8.00656L10.4255 8.00414L10.3914 7.98641C10.3591 7.96949 10.3082 7.94239 10.2407 7.90512C10.1055 7.83056 9.90397 7.71549 9.65134 7.56002C9.14536 7.24865 8.43864 6.77774 7.65209 6.1485C6.07013 4.88291 4.2146 3.0162 2.98926 0.56543L0.753174 1.68344C2.19449 4.56616 4.33896 6.69953 6.09034 8.10066C6.58636 8.49747 7.05479 8.83871 7.47253 9.12457C7.05479 9.41042 6.58636 9.75164 6.09035 10.1484Z" fill="#333333"/>
</svg>
