<svg width="10" height="18" viewBox="0 0 10 18" fill="none" xmlns="http://www.w3.org/2000/svg">
<path fill-rule="evenodd" clip-rule="evenodd" d="M4.58543 10.1484C6.33681 11.5495 8.48128 13.6829 9.92261 16.5656L7.68653 17.6836C6.46118 15.2328 4.60566 13.3662 3.0237 12.1006C2.23716 11.4714 1.53044 11.0005 1.02446 10.6892C0.771829 10.5337 0.570273 10.4186 0.435118 10.3441C0.367571 10.3068 0.316708 10.2797 0.284452 10.2628L0.250301 10.2451L0.245577 10.2426L0.244982 10.2423C0.24501 10.2424 0.245039 10.2424 0.245577 10.2414L0.24555 8.00784C0.245011 8.00683 0.244982 8.00685 0.244955 8.00686L0.24555 8.00656L0.250274 8.00414L0.284426 7.98641C0.316682 7.96949 0.367546 7.94239 0.435094 7.90512C0.570249 7.83056 0.771806 7.71549 1.02444 7.56002C1.53042 7.24865 2.23715 6.77774 3.02369 6.1485C4.60565 4.88291 6.46118 3.0162 7.68653 0.56543L9.92261 1.68344C8.48129 4.56616 6.33682 6.69953 4.58544 8.10066C4.08943 8.49747 3.62099 8.83871 3.20325 9.12457C3.62099 9.41042 4.08942 9.75164 4.58543 10.1484Z" fill="#333333"/>
</svg>
