<svg width="184" height="101" viewBox="0 0 184 101" fill="none" xmlns="http://www.w3.org/2000/svg">
<path d="M1.34708 1.21374C0.528285 1.33972 -0.0333439 2.10562 0.0926429 2.92441C0.21863 3.7432 0.984524 4.30483 1.80331 4.17884L1.34708 1.21374ZM55.3509 7.39328L55.8707 5.98624L55.3509 7.39328ZM84.1232 33.3847L82.6745 33.7737L84.1232 33.3847ZM83.7094 43.4097L85.0108 44.1556L85.1079 43.9861L85.1584 43.7973L83.7094 43.4097ZM66.9124 52.6211L66.8091 51.1246L66.9124 52.6211ZM48.9728 47.2664L48.1419 48.5152L48.9728 47.2664ZM37.9667 31.0714L39.4392 30.7853L39.4272 30.7234L39.41 30.6628L37.9667 31.0714ZM73.2634 17.7226L73.2401 16.2228L73.2634 17.7226ZM119.842 31.1715L119.151 32.5029L119.842 31.1715ZM159.215 67.5849L158.026 68.4981L159.215 67.5849ZM173.163 95.3613L174.481 94.6462L173.163 95.3613ZM173.735 100.242C174.435 100.684 175.362 100.476 175.804 99.7755L183.02 88.3654C183.462 87.6653 183.254 86.7387 182.553 86.2959C181.853 85.8532 180.927 86.0619 180.484 86.7621L174.07 96.9044L163.928 90.4908C163.228 90.0481 162.301 90.2568 161.859 90.9569C161.416 91.6571 161.625 92.5836 162.325 93.0264L173.735 100.242ZM1.80331 4.17884C7.82337 3.25254 18.1668 3.3212 28.5496 4.18467C38.9441 5.04911 49.1163 6.68902 54.831 8.80032L55.8707 5.98624C49.7507 3.72519 39.2337 2.06284 28.7982 1.19499C18.3512 0.326174 7.72411 0.232507 1.34708 1.21374L1.80331 4.17884ZM54.831 8.80032C60.0198 10.7173 66.2996 14.2778 71.6454 18.7517C77.0195 23.2494 81.2618 28.5124 82.6745 33.7737L85.5719 32.9957C83.9257 26.8649 79.1393 21.1114 73.5708 16.4511C67.9739 11.7671 61.397 8.02793 55.8707 5.98624L54.831 8.80032ZM82.6745 33.7737C83.0159 35.045 83.2131 36.1655 83.1876 37.529C83.1618 38.912 82.9053 40.6109 82.2603 43.0221L85.1584 43.7973C85.8399 41.2498 86.1552 39.2952 86.1871 37.585C86.2194 35.8553 85.9604 34.4426 85.5719 32.9957L82.6745 33.7737ZM82.408 42.6639C80.6166 45.7895 78.4682 47.7484 75.9543 49.0053C73.4084 50.2782 70.3959 50.8772 66.8091 51.1246L67.0156 54.1175C70.7876 53.8573 74.2466 53.2132 77.2959 51.6886C80.3772 50.148 82.9479 47.755 85.0108 44.1556L82.408 42.6639ZM66.8091 51.1246C60.2068 51.5801 55.6091 49.8804 49.8038 46.0176L48.1419 48.5152C54.3248 52.6293 59.5714 54.6311 67.0156 54.1175L66.8091 51.1246ZM49.8038 46.0176C44.5392 42.5146 40.6568 37.0523 39.4392 30.7853L36.4943 31.3575C37.8773 38.4755 42.2653 44.605 48.1419 48.5152L49.8038 46.0176ZM39.41 30.6628C39.1078 29.5956 39.2409 28.7121 39.6797 27.9085C40.1438 27.0586 41.0012 26.2114 42.2833 25.3957C44.8618 23.7552 48.7465 22.4978 53.0398 21.564C61.5811 19.7063 71.1126 19.2562 73.2867 19.2224L73.2401 16.2228C70.9623 16.2582 61.2127 16.7163 52.4022 18.6325C48.0196 19.5857 43.7107 20.9318 40.6729 22.8645C39.1468 23.8355 37.8403 25.0173 37.0467 26.4707C36.2278 27.9703 36.0093 29.6642 36.5235 31.4801L39.41 30.6628ZM73.2867 19.2224C90.3661 18.9571 104.102 24.6939 119.151 32.5029L120.533 29.8401C105.369 21.9715 91.0858 15.9455 73.2401 16.2228L73.2867 19.2224ZM119.151 32.5029C135.566 41.0203 146.507 53.4889 158.026 68.4981L160.405 66.6717C148.835 51.595 137.562 38.6763 120.533 29.8401L119.151 32.5029ZM158.026 68.4981C161.145 72.5624 163.326 77.069 165.369 81.7835C167.392 86.4513 169.309 91.4021 171.844 96.0764L174.481 94.6462C172.03 90.1265 170.208 85.4048 168.122 80.5906C166.056 75.8232 163.757 71.0386 160.405 66.6717L158.026 68.4981ZM171.844 96.0764C172.549 97.3759 172.783 98.0164 173.073 99.3034L176 98.6443C175.647 97.0782 175.313 96.179 174.481 94.6462L171.844 96.0764Z" fill="#FDE047"/>
</svg>
